<svg width="20" height="18" viewBox="0 0 20 18" fill="none" xmlns="http://www.w3.org/2000/svg">
<path d="M0 2.2533V14.5554H5.96283C6.51391 14.5554 7.05266 14.4861 7.57091 14.3488C8.09491 14.2109 8.56299 13.9985 8.97024 13.7104C9.37441 13.4244 9.70224 13.0537 9.94332 12.5963C10.1818 12.1446 10.3012 11.6071 10.3012 10.9835C10.3012 10.2141 10.1187 9.5577 9.7449 9.00929C9.37324 8.46412 8.81266 8.08104 8.05541 7.86379C8.61157 7.60037 9.02691 7.26154 9.3104 6.84904C9.59132 6.43512 9.7319 5.91787 9.7319 5.29846C9.7319 4.72571 9.63799 4.24204 9.45066 3.85529C9.25849 3.46288 8.99066 3.15096 8.64799 2.91646C8.29999 2.68246 7.88799 2.51171 7.40532 2.40938C6.91974 2.3043 6.38866 2.25338 5.79999 2.25338L0 2.2533ZM13.0562 3.07854V4.29246H18.0431V3.07854H13.0562ZM2.70908 4.34854H5.24299C5.48241 4.34854 5.71658 4.36554 5.93958 4.40946C6.16691 4.44829 6.36291 4.52113 6.53624 4.62571C6.71091 4.72613 6.84907 4.86988 6.95374 5.05338C7.05441 5.23696 7.10424 5.47321 7.10424 5.75954C7.10424 6.27529 6.95332 6.65137 6.64166 6.87837C6.32683 7.10962 5.92974 7.22396 5.44966 7.22396H2.70908V4.34854ZM15.6632 5.39554C14.9807 5.39554 14.3643 5.51738 13.8054 5.75888C13.2467 6.00087 12.7668 6.33179 12.3622 6.75179C11.9584 7.16937 11.651 7.66729 11.4289 8.24421C11.2112 8.8192 11.1004 9.44137 11.1004 10.1075C11.1004 10.7965 11.2074 11.4318 11.42 12.0064C11.635 12.5833 11.9365 13.0749 12.3247 13.4905C12.723 13.9044 13.1963 14.2225 13.763 14.4486C14.3301 14.6728 14.9615 14.7859 15.6632 14.7859C16.6699 14.7859 17.5337 14.555 18.2423 14.0921C18.9589 13.6314 19.4841 12.8663 19.8305 11.7943H17.6763C17.593 12.0699 17.3771 12.3351 17.023 12.5832C16.6651 12.8322 16.2382 12.9575 15.7446 12.9575C15.0586 12.9575 14.529 12.7769 14.1626 12.419C13.7949 12.0612 13.557 11.395 13.557 10.6905H19.9845C20.0305 9.99962 19.9743 9.33904 19.8141 8.70745C19.6526 8.07404 19.3946 7.51037 19.0313 7.01662C18.6684 6.52237 18.206 6.12771 17.6421 5.83621C17.0765 5.54096 16.4169 5.39554 15.6632 5.39554V5.39554ZM15.5893 7.24304C16.1901 7.24304 16.6831 7.41737 16.9736 7.73921C17.2656 8.06337 17.4791 8.5252 17.5375 9.14879H13.557C13.5683 8.97504 13.6053 8.77845 13.6686 8.5617C13.731 8.33937 13.8385 8.13137 13.9963 7.93421C14.1551 7.74037 14.3631 7.57504 14.6163 7.44287C14.8754 7.30887 15.1985 7.24312 15.5893 7.24312V7.24304ZM2.70916 9.07295H5.65366C6.23666 9.07295 6.71049 9.20645 7.06599 9.47595C7.42091 9.74929 7.59974 10.1997 7.59974 10.8336C7.59974 11.1574 7.54707 11.4248 7.43757 11.6308C7.32841 11.8387 7.17874 12.003 6.99758 12.1221C6.81658 12.2464 6.60149 12.3303 6.35916 12.3835C6.12066 12.4368 5.86708 12.4602 5.59958 12.4602H2.70908L2.70916 9.07295Z" fill="#292929"/>
</svg>
