<svg width="118" height="46" viewBox="0 0 118 46" fill="none" xmlns="http://www.w3.org/2000/svg">
<g clip-path="url(#clip0_29648_221)">
<path d="M7.08616 35.2144C-2.2492 35.2144 -1.02005 20.5992 5.76883 17.6668C14.7308 13.7985 15.1716 24.8938 5.08424 29.5211C7.60997 37.5176 16.3437 24.0931 18.5687 21.9666C19.3466 22.7621 19.4866 24.0463 20.2646 24.847C17.4692 27.8314 14.041 35.0428 7.08097 35.2144C5.96073 35.2456 7.81224 35.2144 7.08616 35.2144ZM8.4346 20.7188C5.63918 20.7188 4.66934 25.1797 4.66415 26.5524C5.96591 26.542 11.3234 20.7188 8.4346 20.7188Z" fill="#737373"/>
<path d="M15.3699 16.5751C16.6094 11.8957 17.963 7.18516 21.246 3.48847C23.8391 0.576874 28.4757 -0.151026 28.4757 4.7259C28.4757 13.4919 20.8155 25.0031 18.6788 27.192C18.7565 35.3133 25.0787 29.1833 27.9571 26.9164C29.2588 28.5178 28.6365 29.7812 28.6365 29.7812C23.0975 34.3202 20.9607 35.5005 18.7358 35.5005C12.6886 35.5005 14.4986 19.8558 15.3699 16.5751ZM24.2437 5.21983C20.6132 5.4538 18.8551 19.5698 18.7254 22.1851C19.2492 21.2076 27.1687 5.02746 24.2437 5.21983Z" fill="#737373"/>
<path d="M30.4972 35.4488C21.1619 35.4488 23.5735 21.1871 28.7909 18.208C36.5704 13.747 39.0339 23.5164 28.5627 30.0675C30.8188 38.0016 39.9156 23.0641 42.1405 20.9428C42.9236 21.7383 39.7723 26.4782 40.5503 27.2737C37.7549 30.2477 37.4573 35.2824 30.4972 35.4488C31.2233 35.4488 29.3666 35.5008 30.4972 35.4488ZM31.8457 20.9428C29.0502 20.9428 28.0804 25.4038 28.0752 26.7764C29.3459 26.0745 34.7344 20.9428 31.8457 20.9428Z" fill="#737373"/>
<path d="M52.8464 25.4972C50.2999 28.6844 48.2617 30.4157 46.6695 31.1436L46.602 31.1748L46.4672 31.232L46.3738 31.2684L46.073 31.3776C45.181 31.6792 43.4799 32.0691 42.3752 31.1436C40.3837 29.4747 41.1772 23.8646 43.5888 21.5458C43.789 21.3337 44.0241 21.1579 44.2838 21.0258C44.5559 20.8832 44.8583 20.8083 45.1654 20.8075C46.7939 20.8075 43.6977 25.5336 46.7732 25.5336C50.1547 25.5336 50.2791 20.1939 48.298 18.5146C39.4397 10.986 30.0992 35.3966 43.7029 35.3966C48.967 35.3966 54.2674 29.7814 52.8464 25.4972Z" fill="#737373"/>
<path d="M50.6358 15.4211L50.8277 15.2807L51.0559 15.1299C51.144 15.0675 51.2426 15.0051 51.3567 14.9376C51.5745 14.8024 51.8442 14.6516 52.1554 14.48C52.4665 14.3084 52.8192 14.1317 53.1926 13.9601C53.566 13.7885 54.0017 13.6013 54.4529 13.4402C54.9041 13.279 55.3813 13.0866 55.8791 12.9202C56.377 12.7539 56.9164 12.5719 57.435 12.4315C57.9537 12.2911 58.4723 12.1247 59.0428 12C59.6133 11.8752 60.1267 11.7348 60.6609 11.6308C61.1951 11.5268 61.6982 11.4072 62.2168 11.3292C62.7354 11.2513 63.223 11.1525 63.6949 11.0849L65.0226 10.9133C65.4323 10.8509 65.8109 10.8145 66.148 10.7833L67.0142 10.7001L67.8077 10.5962C68.0555 10.5608 68.3078 10.5762 68.5495 10.6414C68.7912 10.7066 69.0172 10.8202 69.2139 10.9754C69.4105 11.1306 69.5738 11.3242 69.6937 11.5445C69.8136 11.7647 69.8877 12.007 69.9116 12.2568C69.9354 12.5066 69.9085 12.7586 69.8325 12.9977C69.7565 13.2367 69.6329 13.4579 69.4692 13.6477C69.3055 13.8375 69.1051 13.9921 68.8801 14.1021C68.6552 14.2121 68.4103 14.2752 68.1603 14.2876H68.0255H67.9632H67.2475H66.4229C66.1065 14.2876 65.7487 14.2876 65.3856 14.3292L64.1254 14.3968C63.6794 14.428 63.2126 14.4748 62.7251 14.5164C62.2376 14.558 61.7397 14.6256 61.2366 14.688C60.7335 14.7504 60.1993 14.8284 59.6807 14.9168C59.1621 15.0051 58.6434 15.0987 58.1663 15.2027C57.6892 15.3067 57.1913 15.4263 56.7193 15.5355C56.2474 15.6447 55.8065 15.785 55.3916 15.915C54.9767 16.045 54.5826 16.1802 54.2299 16.3154C53.8772 16.4505 53.5557 16.5805 53.2756 16.7001C52.9955 16.8197 52.757 16.9341 52.5755 17.0277L52.3369 17.1576L52.1709 17.2512C52.1262 17.2746 52.0829 17.3006 52.0413 17.3292C51.7875 17.5188 51.469 17.5996 51.1558 17.5538C50.8426 17.5079 50.5604 17.3393 50.3713 17.0849C50.1821 16.8304 50.1016 16.5111 50.1473 16.1972C50.193 15.8832 50.3613 15.6003 50.615 15.4107L50.6358 15.4211Z" fill="#737373"/>
<path d="M117.76 25.8351C116.356 27.6937 114.709 29.355 112.864 30.7745C112.637 30.8998 112.403 31.0126 112.164 31.1124C111.903 31.222 111.623 31.2802 111.339 31.284C111.09 31.284 110.873 31.0656 110.701 30.6341C110.507 30.0981 110.418 29.5298 110.437 28.9599C110.434 28.1297 110.477 27.3 110.567 26.4746C110.655 25.6948 110.784 24.8265 110.961 23.875C111.137 22.9235 111.272 22.0553 111.355 21.2754C111.446 20.4466 111.491 19.6135 111.49 18.7797C111.501 18.5236 111.449 18.2687 111.339 18.0374C111.229 17.8062 111.063 17.6057 110.857 17.4539C110.425 17.1347 109.899 16.97 109.363 16.986C109.261 16.9864 109.159 16.9951 109.057 17.012H108.928C108.59 17.0831 108.278 17.2489 108.031 17.4903C107.628 17.8847 107.262 18.3145 106.936 18.7745C106.563 19.2944 106.158 19.8976 105.723 20.5839C105.292 21.2702 104.882 21.9201 104.504 22.544C104.125 23.1679 103.767 23.7918 103.441 24.4157C103.114 25.0396 102.922 25.3776 102.922 25.4192L102.715 25.1904C102.71 25.1385 102.71 25.0863 102.715 25.0344C102.739 24.8482 102.777 24.664 102.829 24.4833C103.053 23.7 103.209 23.0969 103.295 22.674C103.41 22.1956 103.508 21.7901 103.596 21.4573C103.697 21.0305 103.773 20.5983 103.824 20.1627C103.888 19.6958 103.919 19.225 103.918 18.7537C103.932 18.5047 103.889 18.2557 103.791 18.0265C103.693 17.7973 103.542 17.5941 103.352 17.4331C102.972 17.1186 102.492 16.9524 101.999 16.9652C101.466 16.9553 100.948 17.1401 100.541 17.4851C100.101 17.8637 99.7119 18.299 99.3849 18.7797C99.0063 19.2996 98.6122 19.8976 98.1973 20.5787C97.7824 21.2598 97.3986 21.9097 97.0407 22.5284C96.6829 23.1471 96.3509 23.7814 96.045 24.4157C95.739 25.05 95.573 25.3828 95.5263 25.4244L95.3189 25.1956C95.5056 24.128 95.6871 23.1627 95.8634 22.2996C95.8634 22.2996 95.9257 21.9461 96.0138 21.3118C96.0657 20.979 96.102 20.6567 96.1279 20.3395C96.1539 20.0223 96.1954 19.726 96.2109 19.4452C96.2265 19.1645 96.242 18.9253 96.242 18.7017C96.245 18.391 96.2312 18.0803 96.2005 17.7711C96.1926 17.5741 96.1089 17.3878 95.9672 17.2511C95.7959 17.1129 95.5852 17.0328 95.3656 17.0224C94.9933 16.9865 94.6193 16.9709 94.2453 16.9756C93.986 16.9698 93.7269 16.9925 93.4725 17.0432C93.2788 17.0825 93.0994 17.1742 92.9539 17.3083C92.7904 17.4695 92.6585 17.66 92.5649 17.8698C92.4277 18.187 92.3082 18.5116 92.2071 18.8421C92.0826 19.2372 91.9478 19.7416 91.7974 20.3655C91.647 20.9894 91.4966 21.6705 91.3513 22.4452C91.2061 23.2199 91.0402 24.0726 90.8327 25.0812C90.6253 26.0899 90.4956 26.979 90.3919 27.7641C90.2881 28.5492 90.2104 29.2979 90.1481 30.005C90.1481 30.2389 90.1118 30.4625 90.0963 30.6757C89.8473 30.8005 89.5776 30.9252 89.3235 31.0448C88.9047 31.2085 88.4702 31.3287 88.0269 31.4036C87.6068 31.4608 87.2542 31.4036 87.1245 31.18C86.9824 30.8744 86.8997 30.5444 86.8807 30.2077C86.8807 30.0206 86.8807 29.823 86.8807 29.6358C86.8842 29.462 86.8963 29.2885 86.917 29.1159L89.6243 18.9669C89.6794 18.7629 89.7141 18.5539 89.728 18.343C89.7304 18.2452 89.7217 18.1476 89.7021 18.0518C89.6837 17.9672 89.6444 17.8886 89.588 17.823C89.3856 17.6114 89.1371 17.4494 88.8619 17.3499C88.2778 17.1337 87.64 17.11 87.0415 17.2823C86.8047 17.3419 86.5751 17.4273 86.3569 17.5371L86.1598 17.6411C86.0425 17.7077 85.9298 17.7824 85.8227 17.8646C85.6978 17.9613 85.5907 18.0792 85.5064 18.213L83.3852 26.2043C83.0477 27.7357 82.1965 29.1048 80.9735 30.083C78.1833 31.6427 77.981 29.6722 78.3285 28.0032C78.4478 27.4833 78.5723 26.9634 78.6916 26.4435C78.8679 25.7364 79.0546 25.0552 79.2361 24.4001C79.4176 23.745 79.5888 23.1315 79.7547 22.5648C80.4186 20.2927 80.8646 18.7797 80.8646 18.7797V18.7329C80.8953 18.6259 80.9162 18.5162 80.9269 18.4054C80.9269 17.6047 80.6261 16.7624 79.4954 16.7C79.0206 16.6788 78.5464 16.7535 78.1009 16.9196C77.6555 17.0858 77.2479 17.3399 76.9023 17.6671C76.7462 17.9213 76.6176 18.1914 76.5185 18.473C76.2695 19.1593 75.9376 20.1367 75.5798 21.3326C75.4086 21.9305 75.2271 22.5856 75.0611 23.2771C74.8952 23.9686 74.7137 24.7173 74.5425 25.492C74.5425 25.492 74.5425 25.5232 74.5425 25.5336C74.2223 25.617 73.8931 25.6606 73.5623 25.6636C73.3646 25.6654 73.1687 25.6265 72.9866 25.5492C72.7934 25.4659 72.6253 25.3332 72.4991 25.1644C72.3377 24.9465 72.2197 24.6993 72.1516 24.4365C72.0541 24.0687 72.0087 23.6888 72.0168 23.3083C72.0228 22.9754 72.054 22.6434 72.1101 22.3152C72.1775 21.9201 72.2761 21.4157 72.4109 20.797C72.5458 20.1783 72.6495 19.6844 72.7169 19.2996C72.7704 19.0043 72.8016 18.7054 72.8103 18.4054C72.8137 18.1479 72.7624 17.8927 72.6599 17.6567C72.5627 17.4464 72.4253 17.2574 72.2553 17.1003C72.0802 16.9476 71.8779 16.8294 71.6589 16.752C71.4363 16.6708 71.2009 16.6303 70.964 16.6324C70.312 16.6195 69.6728 16.8143 69.1384 17.1887C68.6018 17.5703 68.1261 18.0313 67.7277 18.5561C67.2591 19.1874 66.8625 19.8693 66.5452 20.5891C66.1666 21.4105 65.8554 22.0709 65.6013 22.57H65.3939C65.3939 22.4296 65.3939 22.284 65.3939 22.1332C65.3939 21.9825 65.3939 21.8317 65.3939 21.6757C65.3939 21.6237 65.3939 21.5665 65.3939 21.5093C65.3939 21.1454 65.3939 20.7502 65.4509 20.3343C65.5131 19.4781 65.5443 18.8178 65.5443 18.3534C65.5443 17.9634 65.5443 17.6515 65.5183 17.4279C65.5125 17.2678 65.4699 17.1112 65.3939 16.9704C65.3837 16.9485 65.3715 16.9276 65.3575 16.908C65.3081 16.8458 65.247 16.7941 65.1775 16.7557C65.1081 16.7173 65.0318 16.6931 64.953 16.6844H64.8026C64.5993 16.6635 64.395 16.6548 64.1906 16.6584C63.9495 16.6553 63.7085 16.671 63.4697 16.7052C63.2844 16.7252 63.1066 16.7894 62.9511 16.8924C62.8851 16.9434 62.8227 16.999 62.7644 17.0588C62.7067 17.1284 62.653 17.2013 62.6036 17.2771C62.4828 17.4872 62.3821 17.7083 62.3028 17.9374C62.1098 18.4473 61.947 18.9681 61.8153 19.4972C61.6908 19.9755 61.5508 20.5371 61.3952 21.2078C61.3433 21.4313 61.2863 21.6601 61.2292 21.8993C61.1722 22.1384 61.1203 22.3776 61.0685 22.6116C60.9129 23.3135 60.7832 23.979 60.6743 24.6185C60.5343 25.466 60.4046 26.2979 60.3009 27.1142C60.2387 27.6029 60.1816 28.0708 60.1349 28.5284C59.9379 28.7623 59.7304 28.9963 59.5126 29.2355C58.9421 29.8646 58.3197 30.5301 57.6922 31.1332C57.5029 31.3172 57.3038 31.4908 57.0958 31.6531C55.5399 32.3654 55.3791 30.2805 55.3895 29.407C55.4206 29.1263 55.4569 28.8403 55.4984 28.5492C55.6591 27.4677 55.8614 26.3655 56.0741 25.258C56.183 24.7121 56.2919 24.1662 56.4008 23.6306C56.5097 23.0951 56.6394 22.5908 56.7638 22.0709C57.0231 21.031 57.2825 20.0275 57.5418 19.0761C57.8011 18.1246 58.0604 17.2251 58.3145 16.3932C58.4649 15.8733 58.6153 15.3846 58.7606 14.9218C59.1858 13.4972 59.7252 11.8751 59.7252 11.8751L60.0416 10.8872V10.8404C60.1948 10.4313 60.1871 9.979 60.0199 9.57537C59.8527 9.17175 59.5386 8.84701 59.1413 8.66706C58.7441 8.48711 58.2934 8.46542 57.8807 8.60641C57.4681 8.74739 57.1244 9.04048 56.9194 9.4262L56.712 9.82135C56.5719 10.0761 56.38 10.4505 56.1518 10.9288C55.9236 11.4071 55.6332 11.9946 55.348 12.6758L55.1976 13.0345L53.9892 16.1125C53.8024 16.6324 53.6106 17.1835 53.429 17.7555C53.1075 18.7537 52.7911 19.8352 52.5059 20.9322C52.3658 21.4937 52.2362 22.0657 52.1013 22.648C52.0443 22.9391 51.9821 23.2355 51.9198 23.5319L51.8265 23.9894L51.7539 24.4157C51.5348 25.6411 51.3945 26.8794 51.3338 28.1228C51.2976 28.7826 51.2976 29.4439 51.3338 30.1037C51.3878 30.8406 51.5217 31.5693 51.7331 32.277C51.8585 32.7079 52.0325 33.1231 52.2517 33.5145C52.5335 33.9933 52.9157 34.4049 53.372 34.7207C53.8389 35.0298 54.372 35.224 54.9279 35.2874C55.3513 35.3431 55.7802 35.3431 56.2037 35.2874C56.5548 35.2353 56.9015 35.1571 57.241 35.0535L57.5262 34.9703L57.6196 34.9339L57.7959 34.8715C57.9978 34.794 58.1922 34.6983 58.3768 34.5855C58.9413 34.2487 59.4636 33.8455 59.9327 33.3845L60.1661 33.1505C60.2158 33.4322 60.2958 33.7076 60.4046 33.972L60.4513 34.0864C60.4917 34.178 60.5385 34.2666 60.5913 34.3516C60.6907 34.5155 60.813 34.6643 60.9544 34.7935C61.0251 34.8585 61.0995 34.9193 61.1774 34.9755C61.2566 35.0331 61.3418 35.0819 61.4315 35.1211C61.7439 35.2493 62.0794 35.3113 62.4169 35.303C62.6305 35.3076 62.8426 35.2669 63.0393 35.1834C63.1906 35.1141 63.3278 35.0171 63.4438 34.8975C63.4878 34.853 63.5294 34.8062 63.5683 34.7571C63.7554 34.5155 63.9155 34.254 64.0454 33.9772C64.2387 33.5807 64.4118 33.1747 64.564 32.7606L65.0827 31.3204L67.9403 23.3499H68.2411C68.3397 24.1402 68.4693 24.9097 68.6353 25.6948C68.784 26.4209 69.0373 27.1215 69.3873 27.7745C69.7133 28.3838 70.1857 28.902 70.7617 29.2823C71.4354 29.6869 72.2122 29.8857 72.997 29.8542C73.3333 29.8533 73.6686 29.8185 73.9979 29.7502C73.9979 30.0206 73.9979 30.2961 73.9979 30.5821C73.9986 31.0941 74.0403 31.6053 74.1224 32.1107C74.1728 32.4182 74.2491 32.7208 74.3506 33.0153C74.4802 33.4022 74.6711 33.7656 74.9159 34.0916L75.0352 34.2372L75.1234 34.3412V34.3672L75.1804 34.4192L75.3464 34.5699L75.5227 34.7103L75.6783 34.8143C75.7826 34.8813 75.8919 34.9404 76.005 34.9911C76.4117 35.1807 76.8532 35.2834 77.3016 35.2926C77.9258 35.288 78.5421 35.1534 79.1116 34.8975L79.371 34.7727C80.6332 33.898 81.7648 32.8476 82.7317 31.6531C82.7453 32.1263 82.7974 32.5975 82.8873 33.0621C82.9573 33.4304 83.0633 33.7909 83.2036 34.1384C83.3038 34.3905 83.4307 34.6311 83.5822 34.8559C83.6341 34.9339 83.686 35.0015 83.7378 35.0743C83.904 35.285 84.0996 35.4706 84.3187 35.6254L84.4172 35.6826C84.53 35.7442 84.646 35.7998 84.7647 35.849C86.1235 36.3221 88.3692 35.3966 90.4282 34.232C90.4593 34.31 90.4904 34.3932 90.5267 34.4659C90.6833 34.8146 90.9327 35.1132 91.2476 35.329C91.6214 35.5574 92.0551 35.6679 92.4923 35.6462C92.8751 35.6504 93.2529 35.5592 93.5918 35.381C93.9839 35.1347 94.2888 34.7709 94.4631 34.3412C95.331 32.6462 96.038 31.2129 96.5843 30.0414C97.1289 28.8715 97.5749 27.9149 97.9276 27.1818C98.2803 26.4487 98.5499 25.8923 98.747 25.5128C98.8894 25.211 99.0633 24.9252 99.2657 24.6601H99.5457C99.3435 25.8195 99.1775 26.9062 99.0271 27.9149L98.8404 29.2147C98.7781 29.6514 98.7211 30.0622 98.6692 30.4573C98.6174 30.8524 98.5811 31.1956 98.5551 31.4972C98.5292 31.7987 98.5188 32.0171 98.5188 32.1991C98.5186 32.59 98.5411 32.9806 98.5862 33.3689C98.6215 33.7488 98.7106 34.1217 98.8508 34.4763C98.9727 34.8104 99.178 35.1076 99.4472 35.3394C99.7136 35.5626 100.055 35.676 100.401 35.6566C100.88 35.6675 101.356 35.5753 101.797 35.3862C102.253 35.1533 102.631 34.7919 102.886 34.3464L106.708 24.6393H106.988C106.89 25.5544 106.812 26.4539 106.755 27.3533C106.698 28.2528 106.672 29.0951 106.672 29.8906C106.667 30.6566 106.707 31.4222 106.791 32.1835C106.857 32.8068 106.992 33.4208 107.196 34.0136C107.346 34.4693 107.6 34.8838 107.937 35.225C108.247 35.5116 108.656 35.6663 109.078 35.6566C109.913 35.6675 110.744 35.5482 111.542 35.303C111.954 35.1575 112.356 34.9838 112.745 34.7831L112.869 34.7103C112.906 34.7103 112.947 34.6791 112.978 34.6583C116.375 32.7294 118.792 28.9391 117.76 25.8351Z" fill="#737373"/>
<g style="mix-blend-mode:darken" opacity="0.85">
<path d="M90.4434 34.2424C90.4745 34.3206 90.5057 34.4039 90.5421 34.4768L90.4434 34.2424Z" fill="#737373"/>
</g>
</g>
<defs>
<clipPath id="clip0_29648_221">
<rect width="118" height="46" fill="white"/>
</clipPath>
</defs>
</svg>
