<svg width="142" height="38" viewBox="0 0 142 38" fill="none" xmlns="http://www.w3.org/2000/svg">
<path d="M21.8286 17.4141C24.3541 20.3582 27.9221 29.3413 25.0033 31.8887C22.0844 34.4361 13.7839 29.5832 11.2584 26.639C9.43842 24.5173 7.97542 17.2168 7.30005 13.3034C7.09656 12.1243 8.18636 11.1732 9.31394 11.5458C13.0563 12.7826 20.0086 15.2924 21.8286 17.4141Z" fill="#A3A3A3"/>
<path d="M34.824 26.6522C32.2983 29.5963 23.9977 34.4488 21.0789 31.9013C18.1601 29.3538 21.7285 20.3708 24.2542 17.4268C26.0743 15.3052 33.0267 12.7957 36.7691 11.5591C37.8967 11.1865 38.9864 12.1377 38.7829 13.3168C38.1074 17.2302 36.6441 24.5306 34.824 26.6522Z" fill="#A3A3A3"/>
<path d="M29.9814 19.5581C29.9814 23.4514 26.8524 32.5995 22.9926 32.5995C19.1328 32.5995 16.0038 23.4514 16.0038 19.5581C16.0038 16.4108 20.571 8.63177 22.3212 5.76627C22.6324 5.25678 23.3528 5.25678 23.664 5.76627C25.4142 8.63177 29.9814 16.4108 29.9814 19.5581Z" fill="url(#paint0_linear_29284_50)"/>
<path d="M54.9939 29.4476H50.2238V11.7941H58.7307C59.5317 11.7941 60.3047 11.8921 61.0496 12.0883C61.7946 12.2763 62.4514 12.5787 63.0201 12.9955C63.5969 13.4041 64.0534 13.9354 64.3899 14.5892C64.7343 15.243 64.9065 16.0358 64.9065 16.9675C64.9065 17.6949 64.7543 18.3814 64.4499 19.0271C64.1536 19.6646 63.7531 20.2367 63.2484 20.7434C62.7518 21.242 62.1791 21.6588 61.5302 21.9939C60.8814 22.3208 60.2085 22.5374 59.5117 22.6436C59.8241 23.183 60.1485 23.6938 60.4849 24.176C60.8293 24.6582 61.1738 25.1118 61.5182 25.5368C61.8707 25.9537 62.2191 26.3419 62.5635 26.7015C62.908 27.0529 63.2364 27.3757 63.5488 27.67C64.2857 28.3565 65.0147 28.949 65.7356 29.4476H59.788C59.3074 28.9817 58.8508 28.4219 58.4183 27.768C58.0498 27.2123 57.6773 26.5258 57.3008 25.7085C56.9324 24.883 56.648 23.9309 56.4478 22.852H54.9939V29.4476ZM60.0644 16.9675C60.0644 15.7825 59.78 14.912 59.2113 14.3563C58.6506 13.8005 57.8055 13.5226 56.676 13.5226H54.9939V21.1848H56.676C57.2768 21.1848 57.7895 21.0703 58.214 20.8415C58.6466 20.6045 58.999 20.2939 59.2713 19.9098C59.5437 19.5175 59.7439 19.068 59.8721 18.5612C60.0003 18.0545 60.0644 17.5233 60.0644 16.9675Z" fill="#737373"/>
<path d="M70.5537 22.7294C71.0503 22.8439 71.547 22.9338 72.0436 22.9991C72.5402 23.0645 73.0409 23.0972 73.5455 23.0972C74.0742 23.0972 74.5628 23.0482 75.0114 22.9501C75.468 22.8439 75.8605 22.6722 76.1889 22.4352C76.5253 22.19 76.7896 21.8672 76.9819 21.4667C77.1741 21.0662 77.2703 20.5677 77.2703 19.9711C77.2703 19.4889 77.2062 19.0475 77.078 18.6471C76.9498 18.2466 76.7576 17.9033 76.5013 17.6173C76.253 17.3312 75.9446 17.1106 75.5761 16.9553C75.2076 16.7918 74.7791 16.7101 74.2905 16.7101C73.8339 16.7101 73.4214 16.7959 73.0529 16.9675C72.6924 17.1392 72.372 17.3721 72.0917 17.6663C71.8193 17.9524 71.583 18.2875 71.3828 18.6716C71.1905 19.0557 71.0303 19.4562 70.9022 19.873C70.774 20.2898 70.6819 20.7107 70.6258 21.1357C70.5697 21.5607 70.5417 21.9612 70.5417 22.3371C70.5417 22.4025 70.5417 22.4679 70.5417 22.5333C70.5417 22.5987 70.5457 22.664 70.5537 22.7294ZM80.5624 19.9343C80.5624 20.5146 80.4703 21.0336 80.2861 21.4912C80.1019 21.9407 79.8495 22.3371 79.5291 22.6804C79.2167 23.0237 78.8523 23.3138 78.4357 23.5508C78.0192 23.7878 77.5746 23.984 77.102 24.1393C76.6294 24.2864 76.1408 24.3926 75.6362 24.458C75.1395 24.5234 74.6549 24.5561 74.1823 24.5561C73.5816 24.5561 72.9888 24.5152 72.4041 24.4335C71.8193 24.3436 71.2426 24.2046 70.6739 24.0167C70.762 24.5561 70.9022 25.071 71.0944 25.5614C71.2866 26.0436 71.543 26.4685 71.8634 26.8363C72.1838 27.1959 72.5763 27.482 73.0409 27.6945C73.5135 27.907 74.0702 28.0132 74.711 28.0132C75.1355 28.0132 75.5401 27.9478 75.9245 27.8171C76.309 27.6863 76.6615 27.5024 76.9819 27.2654C77.3023 27.0284 77.5827 26.7464 77.823 26.4195C78.0713 26.0926 78.2715 25.7289 78.4237 25.3284L80.178 25.9904C79.9136 26.6361 79.5492 27.1959 79.0846 27.67C78.628 28.1358 78.1073 28.524 77.5226 28.8346C76.9458 29.137 76.3291 29.3618 75.6722 29.5089C75.0234 29.656 74.3786 29.7295 73.7378 29.7295C72.6804 29.7295 71.7032 29.5497 70.806 29.1901C69.9089 28.8223 69.1359 28.3115 68.4871 27.6577C67.8383 27.0039 67.3296 26.2234 66.9611 25.3162C66.5927 24.409 66.4084 23.416 66.4084 22.3371C66.4084 21.2583 66.5927 20.2653 66.9611 19.3581C67.3296 18.4509 67.8383 17.6704 68.4871 17.0166C69.1359 16.3627 69.9089 15.856 70.806 15.4964C71.7032 15.1286 72.6804 14.9447 73.7378 14.9447C74.2504 14.9447 74.7751 14.9815 75.3118 15.0551C75.8484 15.1286 76.3691 15.2471 76.8738 15.4106C77.3784 15.5659 77.855 15.7702 78.3036 16.0236C78.7521 16.2769 79.1406 16.5916 79.4691 16.9675C79.8055 17.3353 80.0698 17.7644 80.2621 18.2548C80.4623 18.7451 80.5624 19.305 80.5624 19.9343Z" fill="#737373"/>
<path d="M90.2348 29.4476H86.5821L81.5357 15.288H85.5969L89.2976 26.5666L92.8901 15.288H95.7017L90.2348 29.4476Z" fill="#737373"/>
<path d="M101.685 11.8676C101.685 12.1782 101.625 12.4724 101.505 12.7503C101.393 13.0282 101.237 13.2693 101.037 13.4736C100.836 13.6779 100.6 13.8414 100.328 13.964C100.055 14.0784 99.7669 14.1356 99.4625 14.1356C99.1581 14.1356 98.8698 14.0784 98.5974 13.964C98.3331 13.8414 98.1008 13.6779 97.9005 13.4736C97.7003 13.2693 97.5401 13.0282 97.4199 12.7503C97.3078 12.4724 97.2517 12.1782 97.2517 11.8676C97.2517 11.5571 97.3078 11.2669 97.4199 10.9972C97.5401 10.7193 97.7003 10.4782 97.9005 10.2739C98.1008 10.0696 98.3331 9.91021 98.5974 9.79579C98.8698 9.67319 99.1581 9.6119 99.4625 9.6119C99.7669 9.6119 100.055 9.67319 100.328 9.79579C100.6 9.91021 100.836 10.0696 101.037 10.2739C101.237 10.4782 101.393 10.7193 101.505 10.9972C101.625 11.2669 101.685 11.5571 101.685 11.8676ZM101.505 29.4476H97.4319V15.3002H101.505V29.4476Z" fill="#737373"/>
<path d="M112.055 29.4476H108.402L103.355 15.288H107.417L111.117 26.5666L114.71 15.288H117.521L112.055 29.4476Z" fill="#737373"/>
<path d="M132.973 29.4476H128.912V27.7558C128.431 28.426 127.851 28.9245 127.17 29.2514C126.497 29.5702 125.756 29.7295 124.947 29.7295C123.89 29.7295 122.944 29.5375 122.111 29.1534C121.278 28.7692 120.573 28.2462 119.997 27.5841C119.42 26.914 118.979 26.1294 118.675 25.2303C118.371 24.3313 118.218 23.3669 118.218 22.3371C118.218 21.3073 118.371 20.3429 118.675 19.4439C118.979 18.5449 119.42 17.7644 119.997 17.1024C120.573 16.4322 121.278 15.905 122.111 15.5209C122.944 15.1368 123.89 14.9447 124.947 14.9447C125.484 14.9447 125.992 15.0265 126.473 15.1899C126.962 15.3534 127.406 15.5863 127.807 15.8887C128.215 16.1829 128.572 16.5425 128.876 16.9675C129.188 17.3843 129.433 17.8502 129.609 18.3651L131.411 15.288H132.973V29.4476ZM128.888 22.3371C128.888 21.9694 128.868 21.5811 128.828 21.1725C128.796 20.7638 128.736 20.3593 128.648 19.9588C128.56 19.5583 128.435 19.1783 128.275 18.8187C128.123 18.4509 127.923 18.1281 127.674 17.8502C127.434 17.5641 127.142 17.3394 126.797 17.1759C126.453 17.0125 126.052 16.9307 125.596 16.9307C125.139 16.9307 124.743 17.0166 124.406 17.1882C124.07 17.3517 123.781 17.5764 123.541 17.8625C123.301 18.1403 123.101 18.4632 122.94 18.831C122.788 19.1987 122.668 19.5829 122.58 19.9833C122.492 20.3838 122.428 20.7884 122.388 21.197C122.356 21.5975 122.34 21.9775 122.34 22.3371C122.34 22.6967 122.356 23.0809 122.388 23.4895C122.428 23.8982 122.492 24.3027 122.58 24.7032C122.668 25.1037 122.788 25.4878 122.94 25.8556C123.101 26.2234 123.301 26.5503 123.541 26.8363C123.781 27.1142 124.07 27.339 124.406 27.5106C124.743 27.6741 125.139 27.7558 125.596 27.7558C126.012 27.7558 126.381 27.67 126.701 27.4983C127.03 27.3185 127.314 27.0815 127.554 26.7873C127.803 26.4931 128.011 26.158 128.179 25.782C128.347 25.4061 128.483 25.0179 128.588 24.6174C128.692 24.2169 128.768 23.8205 128.816 23.4282C128.864 23.0277 128.888 22.6641 128.888 22.3371Z" fill="#737373"/>
<defs>
<linearGradient id="paint0_linear_29284_50" x1="70.1243" y1="4.68352" x2="70.1243" y2="32.6165" gradientUnits="userSpaceOnUse">
<stop offset="0.075" stop-color="#9D9D9D"/>
<stop offset="1" stop-color="#BCBCBC"/>
</linearGradient>
</defs>
</svg>
