<svg width="156" height="34" viewBox="0 0 156 34" fill="none" xmlns="http://www.w3.org/2000/svg">
<g clip-path="url(#clip0_29207_1144)">
<path d="M42.4719 27.222V6.40745H54.7955V9.13972H45.3626V15.0161H53.1773V17.7208H45.3626V27.222H42.4719Z" fill="#737373"/>
<path d="M56.2478 20.6178C56.2478 19.6476 56.4323 18.7277 56.8011 17.8582C57.1791 16.9886 57.6863 16.2472 58.3226 15.6339C58.9588 15.0115 59.7149 14.5218 60.5909 14.1648C61.4668 13.7987 62.3889 13.6156 63.3574 13.6156C65.2105 13.6156 66.7134 14.2701 67.8661 15.579V13.8628H70.5772V27.222H67.8661V25.643C66.7501 26.9427 65.2472 27.5926 63.3574 27.5926C62.3705 27.5926 61.4391 27.4141 60.5632 27.0572C59.6872 26.691 58.9311 26.2013 58.2949 25.5881C57.6679 24.9657 57.1699 24.2243 56.8011 23.3638C56.4323 22.4943 56.2478 21.579 56.2478 20.6178ZM58.9311 20.6178C58.9311 21.8719 59.3553 22.9245 60.2035 23.7758C61.0519 24.627 62.1031 25.0526 63.3574 25.0526C64.6298 25.0526 65.6903 24.6224 66.5383 23.762C67.3863 22.8925 67.8107 21.8444 67.8107 20.6178C67.8107 19.3914 67.382 18.3433 66.5246 17.4737C65.6672 16.6042 64.6111 16.1694 63.3574 16.1694C62.1031 16.1694 61.0519 16.5996 60.2035 17.46C59.3553 18.3204 58.9311 19.373 58.9311 20.6178Z" fill="#737373"/>
<path d="M75.1139 27.222V13.8628H77.8244V15.4692C78.4518 14.7277 79.1385 14.2334 79.8856 13.9863C80.632 13.7392 81.6926 13.6156 83.0665 13.6156V16.1969C81.9879 16.1969 81.0888 16.2975 80.3697 16.4989C79.6594 16.7003 79.1248 17.0023 78.7653 17.4051C78.4057 17.7987 78.1565 18.2243 78.0182 18.682C77.8892 19.1305 77.8244 19.6705 77.8244 20.3021V27.222H75.1139Z" fill="#737373"/>
<path d="M93.1774 27.222H106.456V23.6796H96.8842V18.1328H104.422V14.5905H96.8842V9.96351H106.456V6.40745H93.1774V27.222Z" fill="#737373"/>
<path d="M108.42 20.5904C108.42 21.8536 108.724 23.0343 109.36 24.1052C109.996 25.1762 110.853 26.0274 111.96 26.659C113.053 27.2906 114.256 27.5926 115.556 27.5926C117.023 27.5926 118.267 27.1808 119.291 26.3569V27.222H122.776V13.8628H119.291V14.8513C118.239 14.0275 116.995 13.6156 115.556 13.6156C113.564 13.6156 111.877 14.3021 110.494 15.6477C109.111 17.0069 108.42 18.6545 108.42 20.5904ZM111.835 20.5904C111.835 19.6018 112.195 18.7506 112.928 18.0229C113.662 17.2953 114.533 16.9245 115.556 16.9245C116.58 16.9245 117.465 17.2953 118.198 18.0229C118.917 18.7506 119.291 19.6018 119.291 20.5904C119.291 21.5927 118.917 22.4577 118.198 23.1854C117.465 23.913 116.58 24.27 115.556 24.27C114.533 24.27 113.662 23.913 112.928 23.1854C112.195 22.4577 111.835 21.5927 111.835 20.5904Z" fill="#737373"/>
<path d="M125.667 25.6979C126.414 26.2745 127.202 26.7414 128.046 27.0846C128.876 27.4279 129.858 27.5926 130.992 27.5926C132.638 27.5926 133.91 27.2082 134.823 26.4119C135.722 25.6293 136.178 24.5995 136.178 23.3364C136.178 22.7048 136.054 22.1282 135.805 21.6339C135.556 21.1396 135.224 20.7414 134.837 20.4531C134.436 20.1648 133.993 19.9176 133.523 19.698C133.053 19.4783 132.569 19.2998 132.098 19.1625C131.614 19.0252 131.172 18.8879 130.784 18.7506C130.384 18.6133 130.065 18.4623 129.816 18.27C129.567 18.0778 129.443 17.8582 129.443 17.611C129.443 17.3913 129.539 17.1854 129.747 17.0207C129.941 16.8559 130.3 16.7598 130.826 16.7598C131.849 16.7598 132.859 17.103 133.855 17.7758L135.694 15.3044C135.003 14.6866 134.214 14.2472 133.315 14.0001C132.417 13.7529 131.573 13.6156 130.798 13.6156C129.332 13.6156 128.17 14.0138 127.313 14.8101C126.455 15.6064 126.04 16.6362 126.04 17.8856C126.04 18.5446 126.165 19.1076 126.414 19.6018C126.662 20.0961 126.981 20.4806 127.382 20.7552C127.783 21.0298 128.226 21.2769 128.724 21.4691C129.208 21.6613 129.692 21.8261 130.176 21.9497C130.66 22.087 131.103 22.2105 131.504 22.3204C131.905 22.444 132.237 22.595 132.486 22.7872C132.735 22.9794 132.859 23.1991 132.859 23.46C132.859 23.7346 132.721 23.968 132.472 24.1602C132.209 24.3524 131.794 24.4348 131.227 24.4348C130.646 24.4348 130.01 24.3387 129.346 24.119C128.682 23.8993 128.059 23.556 127.506 23.0618L125.667 25.6979Z" fill="#737373"/>
<path d="M137.451 17.1854H139.581V23.254C139.581 24.5995 139.913 25.6567 140.605 26.4256C141.296 27.2082 142.278 27.5926 143.564 27.5926C144.671 27.5926 145.57 27.4828 146.262 27.2494V24.1876L146.026 24.2288C145.861 24.2563 145.639 24.27 145.363 24.2975C145.086 24.3249 144.809 24.3249 144.56 24.3249C143.551 24.3249 143.053 23.7346 143.053 22.5263V17.1854H146.635V13.8628H143.053V9.33194H139.581V13.8628H137.451V17.1854Z" fill="#737373"/>
<path d="M150.867 25.2311C150.867 25.849 151.075 26.3707 151.503 26.7826C151.918 27.2082 152.444 27.4141 153.08 27.4141C153.689 27.4141 154.214 27.2082 154.629 26.7963C155.044 26.3844 155.252 25.8627 155.252 25.2311C155.252 24.6133 155.044 24.0915 154.629 23.6796C154.214 23.2677 153.689 23.0618 153.08 23.0618C152.444 23.0618 151.918 23.2815 151.503 23.6934C151.075 24.1052 150.867 24.627 150.867 25.2311Z" fill="#737373"/>
<path fill-rule="evenodd" clip-rule="evenodd" d="M13.3344 2.76443C16.0393 2.51839 24.6311 2.62628 29.3785 2.71085C29.9074 2.72027 30.2473 3.28644 29.9978 3.76887L27.3886 8.81496C27.2636 9.05666 27.0156 9.20826 26.745 9.20826H12.8388C12.2334 9.20826 11.7013 9.20826 11.2592 9.23605C10.8118 9.26415 10.3495 9.32502 9.91909 9.50061C8.9212 9.9078 8.5018 10.7569 8.16601 11.5981C7.91684 12.2223 8.21723 12.9318 8.83696 13.1828C9.45669 13.4338 10.1611 13.1312 10.4103 12.507C10.5641 12.1215 10.6644 11.9366 10.7368 11.8383C10.7818 11.7773 10.7985 11.7705 10.8246 11.7599L10.8272 11.7588C10.895 11.7312 11.0488 11.6904 11.4098 11.6677C11.7678 11.6452 12.2248 11.6447 12.873 11.6447H26.745C27.9174 11.6447 28.9924 10.9878 29.5339 9.94045L32.1431 4.89435C33.2175 2.8165 31.7578 0.31641 29.4213 0.274786C24.7367 0.191332 15.9058 0.0754286 13.0724 0.341991L13.0356 0.345454L12.999 0.351177C8.77072 1.01342 5.58018 4.02732 4.1283 6.47474C0.861706 11.9814 4.85476 17.7439 9.93716 17.7439H20.9309C21.4535 17.7439 21.8047 18.2835 21.5964 18.7663L19.6093 23.3699C19.494 23.6367 19.2327 23.8093 18.9438 23.8093H14.195C12.8995 23.8093 11.7367 24.6096 11.2657 25.8252L9.29113 30.922C9.18247 31.2025 8.9141 31.3872 8.61514 31.3872H3.24979C2.71898 31.3872 2.3678 30.8319 2.59213 30.3473L7.01927 20.7843C7.30153 20.1745 7.03965 19.4497 6.43431 19.1654C5.82894 18.881 5.10936 19.1448 4.82707 19.7546L0.399933 29.3176C-0.57217 31.4174 0.949618 33.8236 3.24979 33.8236H8.61514C9.91061 33.8236 11.0735 33.0233 11.5445 31.8077L13.519 26.711C13.6277 26.4304 13.896 26.2458 14.195 26.2458H18.9438C20.1956 26.2458 21.3283 25.4978 21.8275 24.3413L23.8146 19.7377C24.7175 17.6459 23.1954 15.3075 20.9309 15.3075H9.93716C6.67888 15.3075 3.92908 11.5606 6.20469 7.72455C7.3821 5.73976 10.0049 3.30052 13.3344 2.76443Z" fill="#737373"/>
</g>
<defs>
<clipPath id="clip0_29207_1144">
<rect width="155.15" height="33.6471" fill="white" transform="translate(0.101562 0.176514)"/>
</clipPath>
</defs>
</svg>
