<svg width="118" height="46" viewBox="0 0 118 35" fill="none" xmlns="http://www.w3.org/2000/svg">
<path d="M6.7053 34.031C-2.63006 34.031 -1.40091 19.4158 5.38797 16.4834C14.3499 12.6152 14.7908 23.7104 4.70338 28.3378C7.22912 36.3343 15.9629 22.9097 18.1878 20.7832C18.9657 21.5787 19.1058 22.863 19.8837 23.6636C17.0883 26.648 13.6601 33.8594 6.70011 34.031C5.57987 34.0622 7.43138 34.031 6.7053 34.031ZM8.05374 19.5354C5.25832 19.5354 4.28848 23.9964 4.28329 25.369C5.58505 25.3586 10.9425 19.5354 8.05374 19.5354Z" fill="#737373"/>
<path d="M14.989 15.3917C16.2286 10.7124 17.5822 6.00181 20.8651 2.30512C23.4583 -0.606476 28.0948 -1.33438 28.0948 3.54255C28.0948 12.3085 20.4347 23.8197 18.2979 26.0086C18.3757 34.1299 24.6978 28 27.5762 25.7331C28.878 27.3345 28.2556 28.5979 28.2556 28.5979C22.7166 33.1369 20.5799 34.3171 18.3549 34.3171C12.3077 34.3171 14.1177 18.6725 14.989 15.3917ZM23.8628 4.03648C20.2324 4.27045 18.4742 18.3865 18.3446 21.0017C18.8684 20.0243 26.7879 3.84411 23.8628 4.03648Z" fill="#737373"/>
<path d="M30.1164 34.2654C20.781 34.2654 23.1926 20.0038 28.4101 17.0246C36.1895 12.5636 38.653 22.3331 28.1819 28.8842C30.4379 36.8183 39.5347 21.8807 41.7596 19.7594C42.5428 20.5549 39.3915 25.2949 40.1694 26.0904C37.374 29.0643 37.0764 34.099 30.1164 34.2654C30.8425 34.2654 28.9858 34.3174 30.1164 34.2654ZM31.4648 19.7594C28.6694 19.7594 27.6995 24.2204 27.6944 25.593C28.965 24.8911 34.3536 19.7594 31.4648 19.7594Z" fill="#737373"/>
<path d="M52.4655 24.3139C49.919 27.501 47.8808 29.2324 46.2886 29.9603L46.2212 29.9915L46.0863 30.0487L45.993 30.0851L45.6922 30.1942C44.8001 30.4958 43.099 30.8857 41.9943 29.9603C40.0028 28.2913 40.7963 22.6813 43.2079 20.3624C43.4081 20.1504 43.6432 19.9745 43.9029 19.8425C44.1751 19.6998 44.4775 19.6249 44.7846 19.6241C46.4131 19.6241 43.3169 24.3503 46.3923 24.3503C49.7738 24.3503 49.8983 19.0106 47.9171 17.3312C39.0589 9.80266 29.7183 34.2133 43.322 34.2133C48.5861 34.2133 53.8866 28.5981 52.4655 24.3139Z" fill="#737373"/>
<path d="M50.2549 14.2377L50.4468 14.0974L50.675 13.9466C50.7632 13.8842 50.8617 13.8218 50.9758 13.7542C51.1936 13.619 51.4633 13.4682 51.7745 13.2967C52.0857 13.1251 52.4384 12.9483 52.8118 12.7767C53.1852 12.6052 53.6208 12.418 54.072 12.2568C54.5233 12.0956 55.0004 11.9033 55.4983 11.7369C55.9962 11.5705 56.5355 11.3885 57.0542 11.2481C57.5728 11.1078 58.0914 10.9414 58.6619 10.8166C59.2324 10.6918 59.7459 10.5514 60.2801 10.4475C60.8142 10.3435 61.3173 10.2239 61.836 10.1459C62.3546 10.0679 62.8421 9.96912 63.314 9.90153L64.6417 9.72996C65.0515 9.66756 65.4301 9.63117 65.7672 9.59997L66.6333 9.51679L67.4268 9.4128C67.6746 9.37745 67.927 9.39283 68.1687 9.45802C68.4104 9.52321 68.6364 9.63685 68.833 9.79207C69.0297 9.94729 69.1929 10.1409 69.3128 10.3611C69.4327 10.5814 69.5069 10.8237 69.5307 11.0735C69.5546 11.3232 69.5277 11.5753 69.4516 11.8143C69.3756 12.0534 69.252 12.2745 69.0883 12.4643C68.9246 12.6542 68.7242 12.8087 68.4993 12.9187C68.2743 13.0287 68.0294 13.0918 67.7795 13.1043H67.6446H67.5824H66.8667H66.0421C65.7257 13.1043 65.3678 13.1043 65.0048 13.1459L63.7445 13.2135C63.2985 13.2447 62.8317 13.2915 62.3442 13.3331C61.8567 13.3747 61.3588 13.4422 60.8557 13.5046C60.3527 13.567 59.8185 13.645 59.2998 13.7334C58.7812 13.8218 58.2626 13.9154 57.7854 14.0194C57.3083 14.1233 56.8104 14.2429 56.3385 14.3521C55.8665 14.4613 55.4257 14.6017 55.0108 14.7317C54.5959 14.8616 54.2017 14.9968 53.849 15.132C53.4964 15.2672 53.1748 15.3972 52.8948 15.5168C52.6147 15.6363 52.3761 15.7507 52.1946 15.8443L51.956 15.9743L51.7901 16.0679C51.7453 16.0913 51.702 16.1173 51.6604 16.1459C51.4066 16.3355 51.0881 16.4162 50.7749 16.3704C50.4617 16.3246 50.1795 16.1559 49.9904 15.9015C49.8013 15.6471 49.7207 15.3278 49.7664 15.0138C49.8121 14.6998 49.9804 14.4169 50.2342 14.2273L50.2549 14.2377Z" fill="#737373"/>
<path d="M117.379 24.6518C115.975 26.5103 114.328 28.1716 112.483 29.5911C112.256 29.7164 112.022 29.8292 111.783 29.9291C111.522 30.0386 111.242 30.0969 110.959 30.1006C110.71 30.1006 110.492 29.8823 110.321 29.4507C110.127 28.9147 110.037 28.3464 110.056 27.7766C110.053 26.9464 110.096 26.1166 110.186 25.2913C110.274 24.5114 110.404 23.6431 110.58 22.6917C110.756 21.7402 110.891 20.8719 110.974 20.092C111.065 19.2633 111.11 18.4301 111.109 17.5964C111.12 17.3403 111.068 17.0853 110.958 16.8541C110.848 16.6228 110.682 16.4224 110.476 16.2705C110.045 15.9514 109.519 15.7866 108.983 15.8026C108.88 15.8031 108.778 15.8118 108.677 15.8286H108.547C108.209 15.8997 107.898 16.0656 107.65 16.3069C107.247 16.7013 106.881 17.1311 106.555 17.5912C106.182 18.1111 105.777 18.7142 105.342 19.4005C104.911 20.0868 104.502 20.7367 104.123 21.3606C103.744 21.9846 103.387 22.6085 103.06 23.2324C102.733 23.8563 102.541 24.1943 102.541 24.2358L102.334 24.0071C102.329 23.9552 102.329 23.903 102.334 23.8511C102.358 23.6648 102.396 23.4806 102.448 23.3C102.673 22.5166 102.828 21.9135 102.915 21.4906C103.029 21.0123 103.127 20.6067 103.215 20.274C103.316 19.8472 103.392 19.4149 103.444 18.9794C103.507 18.5125 103.539 18.0416 103.537 17.5704C103.551 17.3214 103.508 17.0724 103.41 16.8432C103.312 16.6139 103.162 16.4108 102.972 16.2497C102.591 15.9352 102.111 15.769 101.618 15.7818C101.085 15.772 100.567 15.9568 100.161 16.3017C99.7199 16.6803 99.331 17.1156 99.0041 17.5964C98.6255 18.1163 98.2313 18.7142 97.8164 19.3953C97.4015 20.0764 97.0177 20.7263 96.6599 21.345C96.302 21.9638 95.9701 22.5981 95.6641 23.2324C95.3581 23.8667 95.1921 24.1995 95.1455 24.241L94.938 24.0123C95.1247 22.9447 95.3062 21.9794 95.4826 21.1163C95.4826 21.1163 95.5448 20.7627 95.633 20.1284C95.6848 19.7957 95.7211 19.4733 95.7471 19.1561C95.773 18.839 95.8145 18.5426 95.8301 18.2619C95.8456 17.9811 95.8612 17.7419 95.8612 17.5184C95.8642 17.2076 95.8503 16.8969 95.8197 16.5877C95.8117 16.3907 95.7281 16.2044 95.5863 16.0678C95.415 15.9295 95.2043 15.8494 94.9847 15.839C94.6124 15.8032 94.2384 15.7876 93.8644 15.7922C93.6052 15.7864 93.346 15.8091 93.0917 15.8598C92.8979 15.8991 92.7186 15.9908 92.5731 16.125C92.4096 16.2861 92.2776 16.4766 92.1841 16.6865C92.0468 17.0036 91.9273 17.3282 91.8262 17.6588C91.7018 18.0539 91.5669 18.5582 91.4165 19.1821C91.2661 19.8061 91.1157 20.4872 90.9705 21.2619C90.8253 22.0365 90.6593 22.8892 90.4519 23.8979C90.2444 24.9066 90.1147 25.7956 90.011 26.5807C89.9073 27.3658 89.8295 28.1145 89.7673 28.8216C89.7673 29.0556 89.731 29.2792 89.7154 29.4923C89.4665 29.6171 89.1968 29.7419 88.9426 29.8615C88.5238 30.0251 88.0893 30.1453 87.6461 30.2202C87.226 30.2774 86.8733 30.2202 86.7436 29.9966C86.6016 29.691 86.5189 29.361 86.4999 29.0244C86.4999 28.8372 86.4999 28.6396 86.4999 28.4525C86.5033 28.2787 86.5154 28.1051 86.5362 27.9325L89.2434 17.7835C89.2985 17.5795 89.3333 17.3705 89.3472 17.1596C89.3496 17.0619 89.3409 16.9642 89.3212 16.8685C89.3028 16.7839 89.2636 16.7052 89.2071 16.6397C89.0047 16.428 88.7562 16.2661 88.4811 16.1666C87.8969 15.9504 87.2592 15.9267 86.6607 16.099C86.4239 16.1586 86.1943 16.244 85.9761 16.3537L85.779 16.4577C85.6616 16.5244 85.549 16.5991 85.4419 16.6813C85.3169 16.7779 85.2098 16.8959 85.1255 17.0296L83.0043 25.0209C82.6669 26.5524 81.8156 27.9215 80.5927 28.8996C77.8024 30.4594 77.6002 28.4889 77.9477 26.8199C78.0669 26.3 78.1914 25.78 78.3107 25.2601C78.487 24.553 78.6737 23.8719 78.8553 23.2168C79.0368 22.5617 79.2079 21.9482 79.3739 21.3814C80.0377 19.1094 80.4838 17.5964 80.4838 17.5964V17.5496C80.5145 17.4425 80.5353 17.3329 80.546 17.222C80.546 16.4213 80.2452 15.579 79.1146 15.5166C78.6398 15.4955 78.1655 15.5702 77.7201 15.7363C77.2746 15.9024 76.867 16.1566 76.5214 16.4837C76.3654 16.738 76.2367 17.0081 76.1376 17.2896C75.8887 17.9759 75.5568 18.9534 75.1989 20.1492C75.0278 20.7471 74.8462 21.4022 74.6803 22.0937C74.5143 22.7852 74.3328 23.5339 74.1616 24.3086C74.1616 24.3086 74.1616 24.3398 74.1616 24.3502C73.8414 24.4336 73.5122 24.4773 73.1814 24.4802C72.9837 24.4821 72.7878 24.4431 72.6058 24.3658C72.4125 24.2825 72.2444 24.1498 72.1182 23.9811C71.9568 23.7631 71.8388 23.516 71.7708 23.2532C71.6732 22.8853 71.6278 22.5055 71.6359 22.1249C71.6419 21.792 71.6731 21.4601 71.7293 21.1319C71.7967 20.7367 71.8952 20.2324 72.0301 19.6137C72.1649 18.995 72.2686 18.501 72.3361 18.1163C72.3896 17.821 72.4208 17.522 72.4294 17.222C72.4328 16.9646 72.3816 16.7094 72.279 16.4733C72.1818 16.2631 72.0444 16.0741 71.8745 15.917C71.6994 15.7642 71.497 15.646 71.2781 15.5686C71.0554 15.4874 70.82 15.4469 70.5831 15.4491C69.9312 15.4361 69.292 15.6309 68.7575 16.0054C68.2209 16.3869 67.7452 16.848 67.3468 17.3728C66.8782 18.0041 66.4816 18.686 66.1644 19.4057C65.7858 20.2272 65.4746 20.8875 65.2204 21.3866H65.013C65.013 21.2463 65.013 21.1007 65.013 20.9499C65.013 20.7991 65.013 20.6483 65.013 20.4924C65.013 20.4404 65.013 20.3832 65.013 20.326C65.013 19.962 65.013 19.5669 65.07 19.1509C65.1323 18.2948 65.1634 17.6345 65.1634 17.17C65.1634 16.7801 65.1634 16.4681 65.1375 16.2445C65.1317 16.0845 65.0891 15.9279 65.013 15.787C65.0028 15.7651 64.9907 15.7442 64.9767 15.7246C64.9273 15.6625 64.8661 15.6107 64.7967 15.5724C64.7273 15.534 64.651 15.5098 64.5722 15.5011H64.4218C64.2185 15.4801 64.0141 15.4715 63.8098 15.4751C63.5686 15.472 63.3276 15.4876 63.0889 15.5218C62.9036 15.5418 62.7257 15.606 62.5702 15.709C62.5042 15.7601 62.4418 15.8156 62.3835 15.8754C62.3258 15.9451 62.2721 16.018 62.2228 16.0938C62.1019 16.3039 62.0012 16.525 61.922 16.7541C61.7289 17.2639 61.5661 17.7847 61.4344 18.3139C61.31 18.7922 61.1699 19.3537 61.0143 20.0244C60.9625 20.248 60.9054 20.4768 60.8484 20.7159C60.7913 20.9551 60.7395 21.1943 60.6876 21.4282C60.532 22.1301 60.4024 22.7956 60.2935 23.4352C60.1534 24.2826 60.0238 25.1145 59.92 25.9308C59.8578 26.4195 59.8008 26.8875 59.7541 27.345C59.557 27.579 59.3495 27.813 59.1317 28.0521C58.5612 28.6812 57.9389 29.3467 57.3113 29.9499C57.1221 30.1339 56.923 30.3075 56.7149 30.4698C55.159 31.1821 54.9982 29.0972 55.0086 28.2237C55.0397 27.9429 55.076 27.657 55.1175 27.3658C55.2783 26.2844 55.4806 25.1821 55.6932 24.0747C55.8021 23.5287 55.911 22.9828 56.0199 22.4473C56.1288 21.9118 56.2585 21.4074 56.383 20.8875C56.6423 19.8477 56.9016 18.8442 57.1609 17.8927C57.4202 16.9413 57.6796 16.0418 57.9337 15.2099C58.0841 14.69 58.2345 14.2012 58.3797 13.7385C58.805 12.3139 59.3444 10.6917 59.3444 10.6917L59.6607 9.70385V9.65706C59.814 9.24792 59.8062 8.79565 59.6391 8.39202C59.4719 7.9884 59.1578 7.66366 58.7605 7.48371C58.3632 7.30376 57.9125 7.28208 57.4999 7.42306C57.0872 7.56404 56.7435 7.85714 56.5386 8.24285L56.3311 8.638C56.1911 8.89276 55.9992 9.26711 55.771 9.74545C55.5428 10.2238 55.2524 10.8113 54.9671 11.4924L54.8167 11.8512L53.6083 14.9291C53.4216 15.4491 53.2297 16.0002 53.0482 16.5721C52.7266 17.5704 52.4103 18.6518 52.125 19.7489C51.985 20.3104 51.8553 20.8823 51.7205 21.4646C51.6634 21.7558 51.6012 22.0521 51.539 22.3485L51.4456 22.806L51.373 23.2324C51.1539 24.4578 51.0136 25.696 50.9529 26.9395C50.9167 27.5993 50.9167 28.2606 50.9529 28.9204C51.0069 29.6572 51.1408 30.3859 51.3523 31.0937C51.4777 31.5246 51.6517 31.9397 51.8709 32.3311C52.1526 32.8099 52.5349 33.2215 52.9911 33.5374C53.458 33.8465 53.9911 34.0406 54.547 34.1041C54.9705 34.1598 55.3994 34.1598 55.8229 34.1041C56.1739 34.0519 56.5206 33.9737 56.8601 33.8701L57.1454 33.7869L57.2387 33.7505L57.415 33.6881C57.6169 33.6107 57.8113 33.5149 57.9959 33.4022C58.5604 33.0654 59.0827 32.6622 59.5518 32.2011L59.7852 31.9672C59.835 32.2488 59.915 32.5242 60.0238 32.7887L60.0704 32.903C60.1109 32.9946 60.1577 33.0832 60.2105 33.1682C60.3099 33.3321 60.4321 33.4809 60.5735 33.6102C60.6442 33.6752 60.7187 33.7359 60.7965 33.7921C60.8757 33.8498 60.9609 33.8986 61.0507 33.9377C61.363 34.066 61.6986 34.1279 62.0361 34.1197C62.2496 34.1243 62.4617 34.0835 62.6584 34.0001C62.8098 33.9307 62.9469 33.8338 63.0629 33.7141C63.107 33.6697 63.1485 33.6228 63.1874 33.5738C63.3746 33.3322 63.5346 33.0706 63.6646 32.7939C63.8579 32.3974 64.031 31.9913 64.1832 31.5772L64.7018 30.137L67.5595 22.1665H67.8603C67.9588 22.9568 68.0885 23.7263 68.2544 24.5114C68.4031 25.2376 68.6564 25.9381 69.0065 26.5911C69.3324 27.2004 69.8048 27.7186 70.3808 28.0989C71.0545 28.5036 71.8314 28.7023 72.6161 28.6708C72.9524 28.67 73.2878 28.6351 73.6171 28.5668C73.6171 28.8372 73.6171 29.1128 73.6171 29.3987C73.6178 29.9108 73.6594 30.4219 73.7416 30.9273C73.7919 31.2348 73.8682 31.5375 73.9698 31.832C74.0993 32.2188 74.2902 32.5822 74.5351 32.9082L74.6543 33.0538L74.7425 33.1578V33.1838L74.7996 33.2358L74.9655 33.3866L75.1419 33.527L75.2974 33.6309C75.4018 33.698 75.511 33.7571 75.6242 33.8077C76.0308 33.9974 76.4724 34.1001 76.9208 34.1093C77.5449 34.1046 78.1612 33.9701 78.7308 33.7141L78.9901 33.5894C80.2523 32.7146 81.3839 31.6642 82.3508 30.4698C82.3645 30.9429 82.4165 31.4141 82.5064 31.8788C82.5764 32.2471 82.6824 32.6076 82.8228 32.955C82.9229 33.2072 83.0498 33.4477 83.2014 33.6725C83.2533 33.7505 83.3051 33.8181 83.357 33.8909C83.5231 34.1017 83.7188 34.2873 83.9378 34.442L84.0364 34.4992C84.1492 34.5609 84.2651 34.6164 84.3839 34.6656C85.7427 35.1387 87.9884 34.2133 90.0473 33.0486C90.0784 33.1266 90.1096 33.2098 90.1459 33.2826C90.3024 33.6313 90.5519 33.9299 90.8668 34.1457C91.2406 34.3741 91.6742 34.4846 92.1115 34.4628C92.4942 34.467 92.872 34.3759 93.211 34.1977C93.6031 33.9513 93.9079 33.5875 94.0823 33.1578C94.9501 31.4628 95.6572 30.0296 96.2035 28.858C96.748 27.6882 97.1941 26.7315 97.5467 25.9984C97.8994 25.2653 98.1691 24.709 98.3662 24.3294C98.5086 24.0277 98.6824 23.7419 98.8848 23.4768H99.1649C98.9626 24.6362 98.7966 25.7228 98.6462 26.7315L98.4595 28.0313C98.3973 28.4681 98.3402 28.8788 98.2884 29.2739C98.2365 29.6691 98.2002 30.0122 98.1743 30.3138C98.1483 30.6154 98.138 30.8337 98.138 31.0157C98.1378 31.4066 98.1603 31.7972 98.2054 32.1855C98.2407 32.5654 98.3297 32.9383 98.4699 33.293C98.5918 33.6271 98.7971 33.9243 99.0663 34.1561C99.3328 34.3793 99.6739 34.4927 100.021 34.4732C100.5 34.4841 100.975 34.392 101.416 34.2029C101.872 33.97 102.251 33.6085 102.505 33.163L106.327 23.456H106.607C106.509 24.371 106.431 25.2705 106.374 26.17C106.317 27.0695 106.291 27.9117 106.291 28.7072C106.286 29.4732 106.326 30.2388 106.41 31.0001C106.476 31.6235 106.611 32.2374 106.815 32.8303C106.966 33.2859 107.219 33.7005 107.556 34.0417C107.867 34.3283 108.276 34.483 108.697 34.4732C109.532 34.4841 110.363 34.3649 111.161 34.1197C111.573 33.9741 111.975 33.8004 112.364 33.5998L112.488 33.527C112.525 33.527 112.566 33.4958 112.597 33.475C115.994 31.546 118.411 27.7558 117.379 24.6518Z" fill="#737373"/>
<g style="mix-blend-mode:darken" opacity="0.85">
<path d="M90.0625 33.0591C90.0937 33.1372 90.1249 33.2206 90.1612 33.2935L90.0625 33.0591Z" fill="#737373"/>
</g>
</svg>
