<svg width="195" height="34" viewBox="0 0 195 34" fill="none" xmlns="http://www.w3.org/2000/svg">
<path d="M18.1528 21.8876H21.5291V18.24H18.1528V21.8876Z" fill="#737373"/>
<path d="M12.6047 18.7959V22.8728C12.6047 23.9407 11.8868 24.8627 10.9348 25.0169C9.44049 25.2608 8.656 24.3135 8.41842 23.3472C8.21562 22.5213 8.37208 21.4081 9.41957 20.7616L12.6047 18.7959ZM27.0796 18.7975L30.2623 20.7616C31.31 21.4081 31.4664 22.5213 31.2633 23.3472C31.026 24.3132 30.2424 25.2611 28.7485 25.0172C27.7971 24.8633 27.0796 23.9423 27.0796 22.8751V18.7975ZM31.7307 17.9379L27.0796 15.0677V8.00317H31.7142C31.8824 8.00317 32.0187 7.85586 32.0187 7.67414V5.09368C32.0187 4.91196 31.8824 4.76465 31.7142 4.76465H24.0815V13.2176L19.992 10.6939C19.8984 10.6361 19.7835 10.6361 19.6899 10.6939L15.6025 13.2161V4.76465H7.96767C7.79946 4.76465 7.66301 4.91196 7.66301 5.09368V7.67414C7.66301 7.85586 7.79946 8.00317 7.96767 8.00317H12.6047V15.0664L7.95097 17.9379C6.19331 19.0225 5.17582 21.0853 5.35908 23.1927C5.50425 24.8637 6.24809 26.3042 7.45333 27.2489C8.66728 28.2005 10.1843 28.518 11.7252 28.1416C13.8631 27.6208 15.6025 25.2116 15.6025 22.771V16.946L19.6899 14.4237C19.7836 14.3659 19.8984 14.3659 19.992 14.4237L24.0815 16.9472V22.7703C24.0815 25.2065 25.8172 27.615 27.9507 28.1395C28.3762 28.2441 28.7998 28.2959 29.2158 28.2959C30.3061 28.2959 31.3443 27.9408 32.2238 27.2528C33.4315 26.3087 34.1769 24.8671 34.3228 23.1942C34.5064 21.0858 33.489 19.0225 31.7307 17.9379Z" fill="#737373"/>
<path d="M54.3179 8.19184V24.3807H51.0759V17.6866H45.4356V24.3807H42.1934V8.19184H45.4356V14.4279H51.0759V8.19184H54.3179Z" fill="#737373"/>
<path d="M59.0097 16.776H64.6117C64.1699 15.2493 63.155 14.4211 61.7522 14.4211C60.3607 14.4211 59.3729 15.2981 59.0097 16.776ZM67.7368 18.0922C67.7368 18.4222 67.7154 18.7522 67.6764 19.0822H58.9273C59.1992 20.7868 60.2361 21.7254 61.7522 21.7254C62.8383 21.7254 63.7298 21.1701 64.2045 20.2764H67.4896C66.649 22.9991 64.4362 24.7338 61.7525 24.7338C58.3392 24.7338 55.7563 21.8786 55.7563 18.1362C55.7563 14.3748 58.3216 11.5387 61.7525 11.5387C65.3024 11.5387 67.7368 14.4947 67.7368 18.0922Z" fill="#737373"/>
<path d="M69.1037 7.39107H72.2294V24.3807H69.1037V7.39107Z" fill="#737373"/>
<path d="M74.3701 7.39107H77.4958V24.3807H74.3701V7.39107Z" fill="#737373"/>
<path d="M88.2072 18.1362C88.2072 16.114 86.9288 14.7135 85.1264 14.7135C83.3244 14.7135 82.0457 16.114 82.0457 18.1362C82.0457 20.1591 83.3244 21.5593 85.1264 21.5593C86.9288 21.5593 88.2072 20.1591 88.2072 18.1362ZM78.8774 18.1362C78.8774 14.3479 81.5457 11.5386 85.1264 11.5386C88.69 11.5386 91.3758 14.3518 91.3758 18.1362C91.3758 21.9018 88.69 24.7338 85.1264 24.7338C81.5457 24.7338 78.8774 21.9018 78.8774 18.1362Z" fill="#737373"/>
<path d="M92.1353 19.135H95.4029C95.4029 20.6993 96.5998 21.4541 97.925 21.4541C99.1452 21.4541 100.338 20.7584 100.338 19.5512C100.338 18.2963 98.972 17.9514 97.3471 17.5414C95.0876 16.9401 92.3435 16.2316 92.3435 12.7437C92.3435 9.6385 94.4608 7.88907 97.779 7.88907C101.224 7.88907 103.182 9.87602 103.182 13.1011H99.9783C99.9783 11.707 98.9138 11.0534 97.7014 11.0534C96.6504 11.0534 95.5858 11.5348 95.5858 12.5946C95.5858 13.7337 96.8878 14.0789 98.4739 14.4889C100.759 15.1133 103.627 15.8826 103.627 19.5093C103.627 23.0056 101.049 24.7024 97.9465 24.7024C94.5058 24.7024 92.1353 22.6145 92.1353 19.135Z" fill="#737373"/>
<path d="M116.017 16.793V24.3807H112.891V17.3586C112.891 15.4896 112.28 14.5603 110.875 14.5603C109.316 14.5603 108.281 15.7882 108.281 17.8168V24.3807H105.155V7.391H108.281V13.0509C109.159 12.1483 110.394 11.5956 111.774 11.5956C114.392 11.5956 116.017 13.612 116.017 16.793Z" fill="#737373"/>
<path d="M126.592 18.1362C126.592 16.114 125.314 14.7135 123.511 14.7135C121.709 14.7135 120.431 16.114 120.431 18.1362C120.431 20.1591 121.709 21.5593 123.511 21.5593C125.314 21.5593 126.592 20.1591 126.592 18.1362ZM117.262 18.1362C117.262 14.3479 119.931 11.5386 123.511 11.5386C127.075 11.5386 129.761 14.3518 129.761 18.1362C129.761 21.9018 127.075 24.7338 123.511 24.7338C119.931 24.7338 117.262 21.9018 117.262 18.1362Z" fill="#737373"/>
<path d="M147.405 11.8922L143.628 24.3807H141.111L138.496 17.9219L135.927 24.3807H133.411L129.585 11.8922H132.761L135.046 19.333L138.052 11.9783H138.934L142.041 19.359L144.311 11.8922H147.405Z" fill="#737373"/>
<path d="M148.278 7.08802H151.391V10.2269H148.278V7.08802ZM148.272 11.8922H151.397V24.3807H148.272V11.8922Z" fill="#737373"/>
<path d="M164.399 16.812V24.3807H161.274V17.3586C161.274 15.4707 160.61 14.5603 159.258 14.5603C157.647 14.5603 156.664 15.8072 156.664 17.8168V24.3807H153.538V11.8921H155.683L156.292 13.436C157.167 12.3099 158.549 11.5955 160.122 11.5955C162.757 11.5955 164.399 13.6496 164.399 16.812Z" fill="#737373"/>
<path d="M174.711 17.813C174.711 15.9566 173.487 14.596 171.764 14.596C170.06 14.596 168.814 15.9607 168.814 17.813C168.814 19.68 170.042 21.0445 171.764 21.0445C173.469 21.0445 174.711 19.6841 174.711 17.813ZM177.762 11.8925V22.9301C177.762 26.8405 175.512 29.2352 171.857 29.2352C168.726 29.2352 166.5 27.5029 165.967 24.65H169.074C169.427 25.7747 170.651 26.3467 171.805 26.3467C173.383 26.3467 174.697 25.2428 174.697 23.4156V22.9513C173.777 23.6557 172.644 24.0635 171.393 24.0635C168.164 24.0635 165.645 21.3237 165.645 17.8127C165.645 14.3206 168.164 11.5389 171.393 11.5389C172.899 11.5389 174.236 12.1357 175.234 13.1319L175.738 11.8922L177.762 11.8925Z" fill="#737373"/>
<path d="M184.02 24.7332C181.118 24.7332 179.18 22.9439 179.164 20.2674H182.212C182.227 21.3796 183.015 21.9349 184.136 21.9349C185.004 21.9349 185.781 21.51 185.781 20.6755C185.781 19.8221 184.778 19.5633 183.556 19.3426C181.709 19.0107 179.36 18.4765 179.36 15.5333C179.36 13.1701 181.221 11.5384 184.012 11.5384C186.802 11.5384 188.633 13.2164 188.645 15.7121H185.679C185.668 14.7197 185.024 14.2296 183.934 14.2296C182.961 14.2296 182.387 14.7113 182.387 15.426C182.387 16.2586 183.373 16.4521 184.574 16.6876C186.46 17.0533 188.867 17.4846 188.867 20.5267C188.867 23.0751 186.939 24.7332 184.02 24.7332Z" fill="#737373"/>
</svg>
