<svg width="105" height="52" viewBox="0 0 105 52" fill="none" xmlns="http://www.w3.org/2000/svg">
<path d="M96.4987 5.08764C97.1014 2.32514 94.1882 0.918779 91.7271 2.07401C87.7089 3.93241 85.8003 6.79537 81.1794 8.90491C76.7594 11.2154 74.8507 13.0738 70.8326 14.6308C69.6773 14.9824 61.3396 17.6445 61.3396 17.6445L61.2392 17.9458C61.2392 17.9458 60.2346 18.4481 63.9012 17.7951C70.2801 16.891 68.5221 16.1879 74.0471 14.9824C77.8142 14.229 84.3437 18.6992 88.0103 17.1924C92.4805 15.5851 96.1973 13.4254 95.5444 9.20628C96.9005 8.40264 96.7498 6.34332 96.4987 5.08764Z" fill="#D6D6D6"/>
<path d="M97.7559 5.13805C97.6554 5.13805 96.7011 5.08782 95.8472 5.13805C94.9934 5.18827 94.0391 5.33895 94.0391 5.33895C94.0391 5.33895 94.3404 5.48964 94.692 5.59009C95.0436 5.69055 96.45 6.09236 96.45 6.09236L96.7011 6.24305C96.7011 6.24305 96.902 6.04214 97.2034 5.791C97.5047 5.43941 97.7559 5.13805 97.7559 5.13805Z" fill="#B4B4B4"/>
<path d="M93.7381 4.68598C93.7381 4.68598 93.7381 4.68598 93.6377 4.63575C93.6377 4.63575 93.6377 4.63575 93.6377 4.58552C93.6377 4.28416 93.3865 4.08325 93.0852 4.08325C92.7838 4.08325 92.5829 4.33439 92.5829 4.63575C92.5829 4.63575 92.5829 4.63575 92.5829 4.68598C92.4824 4.68598 92.4824 4.68598 92.4824 4.68598C92.4824 4.68598 92.4824 4.73621 92.6331 4.73621C92.6833 4.93712 92.8842 5.13802 93.1354 5.13802C93.3865 5.13802 93.5874 4.93712 93.5874 4.68598C93.7381 4.73621 93.7381 4.68598 93.7381 4.68598Z" fill="#B4B4B4"/>
<path d="M92.0165 15.8745C95.0978 13.7463 96.4838 10.4113 95.1123 8.42563C93.7408 6.43992 90.1311 6.55544 87.0498 8.68365C83.9686 10.8119 82.5825 14.1468 83.954 16.1326C85.3256 18.1183 88.9353 18.0028 92.0165 15.8745Z" fill="#737373"/>
<path d="M50.1893 42.6078C49.9381 42.2562 49.6368 42.1055 49.1847 42.1055C49.034 42.1055 48.9336 42.1055 48.7829 42.1558C48.6322 42.206 48.5318 42.2562 48.4313 42.3064C48.3309 42.3567 48.2304 42.4571 48.1802 42.6078C48.13 42.7083 48.0797 42.8589 48.0797 43.0096C48.0797 43.2608 48.13 43.4114 48.2806 43.5621C48.4313 43.7128 48.582 43.8133 48.7829 43.8635C48.9838 43.9639 49.1847 44.0142 49.4359 44.0644C49.687 44.1146 49.8879 44.2151 50.0888 44.3155C50.2897 44.416 50.4404 44.5667 50.5911 44.7676C50.7418 44.9685 50.792 45.1694 50.792 45.521C50.792 45.7721 50.7418 45.973 50.6413 46.1739C50.5409 46.3748 50.3902 46.5255 50.2395 46.626C50.0888 46.7767 49.8879 46.8269 49.687 46.9273C49.4861 47.0278 49.2852 47.0278 49.0843 47.0278C48.7829 47.0278 48.4815 46.9776 48.1802 46.8269C47.8788 46.7264 47.6277 46.5255 47.477 46.2242L47.9793 45.8726C48.0797 46.0735 48.2304 46.2242 48.4313 46.3246C48.6322 46.4251 48.8834 46.4753 49.1345 46.4753C49.2852 46.4753 49.3856 46.4753 49.5363 46.4251C49.687 46.3748 49.7875 46.3246 49.8879 46.2242C49.9884 46.1237 50.0888 46.0233 50.139 45.9228C50.1893 45.8223 50.2395 45.6717 50.2395 45.521C50.2395 45.3201 50.1893 45.1694 50.139 45.0689C50.0386 44.9685 49.9884 44.868 49.8377 44.7676C49.687 44.6671 49.5865 44.6169 49.4359 44.5667C49.2852 44.5164 49.1345 44.4662 48.9336 44.416C48.7829 44.3658 48.582 44.3155 48.4313 44.2151C48.2806 44.1648 48.13 44.0644 48.0295 43.9639C47.929 43.8635 47.8286 43.7128 47.7281 43.5621C47.6277 43.4114 47.6277 43.2105 47.6277 42.9594C47.6277 42.7083 47.6779 42.5073 47.7784 42.3064C47.8788 42.1055 47.9793 41.9548 48.1802 41.8544C48.3309 41.7539 48.5318 41.6535 48.7327 41.6033C48.9336 41.553 49.1345 41.5028 49.3354 41.5028C49.6368 41.5028 49.8879 41.553 50.139 41.6535C50.3902 41.7539 50.5911 41.9046 50.792 42.1558L50.1893 42.6078Z" fill="#737373"/>
<path d="M56.317 46.9273H55.8147V42.2562H54.0568V41.7539H58.075V42.2562H56.317V46.9273Z" fill="#737373"/>
<path d="M65.4081 45.0187C65.4081 45.2196 65.3579 45.4708 65.3077 45.7219C65.2575 45.973 65.157 46.1739 65.0063 46.3748C64.8556 46.5758 64.6547 46.7264 64.4036 46.8771C64.1525 47.0278 63.8511 47.078 63.4493 47.078C63.0475 47.078 62.7461 47.0278 62.495 46.8771C62.2438 46.7264 62.0429 46.5758 61.8922 46.3748C61.7415 46.1739 61.6411 45.9228 61.5909 45.7219C61.5406 45.4708 61.4904 45.2698 61.4904 45.0187V41.7539H61.9927V44.9685C61.9927 45.2196 61.9927 45.4205 62.0429 45.6214C62.0931 45.8223 62.1434 45.973 62.2438 46.0735C62.3443 46.1739 62.3945 46.2744 62.495 46.3748C62.5954 46.4753 62.6959 46.4753 62.7963 46.5255C62.8968 46.5758 62.9972 46.5758 63.0977 46.626C63.1981 46.6762 63.2484 46.626 63.3488 46.626C63.3991 46.626 63.4995 46.626 63.6 46.626C63.7004 46.626 63.8009 46.5758 63.9013 46.5255C64.0018 46.4753 64.1022 46.4251 64.2027 46.3748C64.3031 46.3246 64.4036 46.2242 64.4538 46.0735C64.5543 45.973 64.6045 45.8223 64.6547 45.6214C64.705 45.4205 64.705 45.2196 64.705 44.9685V41.7539H65.2072L65.4081 45.0187Z" fill="#737373"/>
<path d="M69.5268 41.7539H71.2345C71.5359 41.7539 71.8875 41.8042 72.1888 41.9046C72.4902 42.0051 72.7915 42.1558 73.0427 42.4069C73.2938 42.6078 73.4947 42.9092 73.6956 43.2105C73.8463 43.5119 73.9468 43.9137 73.9468 44.3155C73.9468 44.7676 73.8463 45.1192 73.6956 45.4708C73.545 45.7721 73.344 46.0735 73.0427 46.2744C72.7915 46.4753 72.4902 46.6762 72.1888 46.7767C71.8875 46.8771 71.5359 46.9273 71.2345 46.9273H69.5268V41.7539ZM70.029 46.4753H71.0336C71.4354 46.4753 71.787 46.4251 72.0381 46.2744C72.3395 46.1739 72.5906 45.973 72.7413 45.8223C72.9422 45.6214 73.0929 45.4205 73.1934 45.1694C73.2938 44.9183 73.344 44.6671 73.344 44.3658C73.344 44.0644 73.2938 43.8133 73.1934 43.5621C73.0929 43.311 72.9422 43.1101 72.7413 42.9092C72.5404 42.7083 72.2893 42.5576 72.0381 42.4571C71.7368 42.3567 71.3852 42.2562 71.0336 42.2562H70.029V46.4753Z" fill="#737373"/>
<path d="M78.417 46.9273H77.9147V41.7539H78.417V46.9273Z" fill="#737373"/>
<path d="M87.709 44.3658C87.709 44.7676 87.6588 45.1192 87.5081 45.4708C87.3575 45.8223 87.2068 46.0735 86.9556 46.3246C86.7045 46.5758 86.4534 46.7767 86.1018 46.8771C85.7502 47.0278 85.3986 47.078 85.047 47.078C84.6452 47.078 84.2936 47.0278 83.9922 46.8771C83.6909 46.7264 83.3895 46.5758 83.1384 46.3246C82.8872 46.0735 82.6863 45.7721 82.5859 45.4708C82.4854 45.1694 82.3849 44.7676 82.3849 44.3658C82.3849 43.9639 82.4352 43.6123 82.5859 43.2608C82.7365 42.9092 82.8872 42.658 83.1384 42.4069C83.3895 42.1558 83.6406 41.9548 83.9922 41.8544C84.3438 41.7037 84.6954 41.6535 85.047 41.6535C85.4488 41.6535 85.8004 41.7037 86.1018 41.8544C86.4534 42.0051 86.7045 42.1558 86.9556 42.4069C87.2068 42.658 87.4077 42.9594 87.5081 43.2608C87.6086 43.5621 87.709 43.9639 87.709 44.3658ZM87.1063 44.3658C87.1063 44.0644 87.0561 43.763 86.9556 43.5119C86.8552 43.2608 86.7045 43.0096 86.5538 42.8087C86.3529 42.6078 86.152 42.4571 85.9009 42.3064C85.6497 42.206 85.3484 42.1055 84.9968 42.1055C84.6452 42.1055 84.3438 42.1558 84.0927 42.3064C83.8415 42.4069 83.5904 42.6078 83.4397 42.8087C83.2388 43.0096 83.1384 43.2608 83.0379 43.5119C82.9375 43.763 82.8872 44.0644 82.8872 44.3658C82.8872 44.6671 82.9375 44.9685 83.0379 45.2196C83.1384 45.4708 83.289 45.7219 83.4397 45.9228C83.6406 46.1237 83.8415 46.2744 84.0927 46.4251C84.3438 46.5758 84.6452 46.626 84.9968 46.626C85.3484 46.626 85.6497 46.5758 85.9009 46.4251C86.152 46.3246 86.4031 46.1237 86.5538 45.9228C86.7547 45.7219 86.8552 45.4708 86.9556 45.2196C87.0561 44.9685 87.1063 44.6671 87.1063 44.3658Z" fill="#737373"/>
<path d="M94.0377 42.6078C93.7865 42.2562 93.4852 42.1055 93.0331 42.1055C92.8824 42.1055 92.782 42.1055 92.6313 42.1558C92.4806 42.206 92.3802 42.2562 92.2797 42.3064C92.1793 42.4069 92.0788 42.4571 92.0286 42.6078C91.9784 42.7083 91.9281 42.8589 91.9281 43.0096C91.9281 43.2608 91.9784 43.4114 92.129 43.5621C92.2797 43.7128 92.4304 43.8133 92.6313 43.8635C92.8322 43.9137 93.0331 44.0142 93.2843 44.0644C93.5354 44.1146 93.7363 44.2151 93.9372 44.3155C94.1381 44.416 94.2888 44.5667 94.4395 44.7676C94.5902 44.9685 94.6404 45.1694 94.6404 45.521C94.6404 45.7721 94.5902 45.973 94.4897 46.1739C94.3893 46.3748 94.2386 46.5255 94.0879 46.626C93.9372 46.7767 93.7363 46.8269 93.5354 46.9273C93.3345 46.9776 93.1336 47.0278 92.9327 47.0278C92.6313 47.0278 92.3299 46.9776 92.0286 46.8269C91.7272 46.7264 91.4761 46.5255 91.3254 46.2242L91.8277 45.8726C91.9281 46.0735 92.0788 46.2242 92.2797 46.3246C92.4806 46.4251 92.7318 46.4753 92.9829 46.4753C93.1336 46.4753 93.234 46.4753 93.3847 46.4251C93.5354 46.3748 93.6359 46.3246 93.7363 46.2242C93.8368 46.1237 93.9372 46.0233 93.9874 45.9228C94.0377 45.8223 94.0879 45.6717 94.0879 45.521C94.0879 45.3201 94.0377 45.1694 93.9874 45.0689C93.887 44.9685 93.7865 44.868 93.6861 44.7676C93.5856 44.6671 93.435 44.6169 93.2843 44.5667C93.1336 44.5164 92.9829 44.4662 92.782 44.416C92.6313 44.3658 92.4304 44.3155 92.2797 44.2151C92.129 44.1648 91.9784 44.0644 91.8779 43.9639C91.7774 43.8635 91.677 43.7128 91.5765 43.5621C91.4761 43.4114 91.4761 43.2105 91.4761 42.9594C91.4761 42.7083 91.5263 42.5073 91.6268 42.3064C91.7272 42.1055 91.8277 41.9548 92.0286 41.8544C92.1793 41.7539 92.3802 41.6535 92.5811 41.6033C92.782 41.553 92.9829 41.5028 93.1838 41.5028C93.4852 41.5028 93.7363 41.553 93.9874 41.6535C94.2386 41.7539 94.4395 41.9046 94.6404 42.1558L94.0377 42.6078Z" fill="#737373"/>
<path d="M9.20382 35.4253C10.4595 36.2792 11.9663 36.8317 13.4229 36.8317C15.9845 36.8317 17.6922 35.3248 17.6922 32.7632V31.8089L17.642 31.7587C16.7379 32.3614 15.432 32.8135 14.0256 32.8135C10.4093 32.8135 7.49609 30.051 7.49609 26.1333C7.49609 22.3662 10.0577 19.1517 14.4275 19.1517C15.8338 19.1517 16.9388 19.453 17.8429 19.9051L20.2036 19.5032V32.7632C20.2036 36.681 17.5918 39.0919 13.5234 39.0919C11.9161 39.0919 10.4093 38.6398 9.30428 38.0873C9.20382 38.0371 9.20382 35.4253 9.20382 35.4253ZM14.327 30.6537C15.5325 30.6537 16.8384 30.2017 17.642 29.5487V22.2155C16.7881 21.7133 15.4822 21.3114 14.2768 21.3114C11.5645 21.3114 9.85678 23.3708 9.85678 25.9826C9.907 28.6446 11.7152 30.6537 14.327 30.6537Z" fill="#737373"/>
<path d="M24.4227 19.453H26.8838V21.3617L26.934 21.4119C27.8381 20.106 29.345 19.3023 30.902 19.3023C31.1531 19.3023 31.4545 19.3526 31.7559 19.4028V21.8639C31.4545 21.7635 31.1029 21.7635 30.8015 21.7635C28.9934 21.7635 27.6875 22.6676 26.8838 24.1242V32.8135H24.4227V19.453Z" fill="#737373"/>
<path d="M34.4681 32.1103C33.6143 31.4573 33.0618 30.4528 33.0618 29.1469C33.0618 27.6401 33.765 26.5853 34.8197 25.8821C35.8243 25.2292 37.1804 24.978 38.5868 24.978C39.6415 24.978 40.5456 25.1287 41.4497 25.3296V24.2246C41.4497 23.2703 41.1986 22.5169 40.6963 22.0146C40.194 21.5626 39.3904 21.2612 38.2352 21.2612C36.5777 21.2612 35.1211 21.8639 34.1165 22.5671V20.1562C35.1713 19.5535 36.5777 19.001 38.5868 19.001C40.194 19.001 41.6506 19.3526 42.5547 20.2064C43.3584 20.9096 43.8606 22.0648 43.8606 23.7223V29.398C43.8606 30.2017 44.162 30.8044 44.9154 30.8044C45.1665 30.8044 45.4679 30.7039 45.7191 30.6035V32.6628C45.4177 32.8135 44.9154 32.9139 44.4131 32.9139C43.3584 32.9139 42.3538 32.4619 41.8515 31.5076H41.8013C41.0479 32.2107 39.4909 32.9642 37.6827 32.9642C36.5275 33.0646 35.322 32.8135 34.4681 32.1103ZM41.3995 29.7496V27.2383C40.6461 27.0373 39.6415 26.8867 38.7877 26.8867C37.1302 26.8867 35.5229 27.3889 35.5229 28.946C35.5229 30.2519 36.6279 30.9048 38.0845 30.9048C39.3402 30.9048 40.5959 30.4026 41.3995 29.7496Z" fill="#737373"/>
<path d="M47.8286 38.7403L51.445 31.3067L45.8697 19.453H48.582L50.8925 24.4758C51.4952 25.8319 52.1481 27.2885 52.7006 28.4939H52.7509C53.3536 27.188 53.9563 25.8319 54.559 24.4758L56.8695 19.453H59.4311L50.3902 38.7905H47.8286V38.7403Z" fill="#737373"/>
<path d="M61.9425 19.453H64.4036V34.1696C64.4036 36.1787 64.0018 37.133 63.4995 37.786C62.6456 38.7403 61.39 39.0417 60.2347 39.0417C59.632 39.0417 59.0795 38.9412 58.6275 38.8408V36.6308C59.1297 36.7312 59.7325 36.8317 60.1343 36.8317C61.6913 36.8317 61.9927 35.7769 61.9927 34.2701V19.453H61.9425Z" fill="#737373"/>
<path d="M69.1752 32.1103C68.3213 31.4573 67.7688 30.4528 67.7688 29.1469C67.7688 27.6401 68.472 26.5853 69.5268 25.8821C70.5313 25.2292 71.8875 24.978 73.2938 24.978C74.3486 24.978 75.2527 25.1287 76.1568 25.3296V24.2246C76.1568 23.2703 75.9056 22.5169 75.4034 22.0146C74.9011 21.5626 74.0975 21.2612 72.9422 21.2612C71.2847 21.2612 69.8281 21.8639 68.8236 22.5671V20.1562C69.8784 19.5535 71.2847 19.001 73.2938 19.001C74.9011 19.001 76.3577 19.3526 77.2618 20.2064C78.0654 20.9096 78.5677 22.0648 78.5677 23.7223V29.398C78.5677 30.2017 78.869 30.8044 79.6225 30.8044C79.8736 30.8044 80.1749 30.7039 80.4261 30.6035V32.6628C80.1247 32.8135 79.6225 32.9139 79.1202 32.9139C78.0654 32.9139 77.0609 32.4619 76.5586 31.5076H76.5084C75.755 32.2107 74.1979 32.9642 72.3897 32.9642C71.2847 33.0646 70.0793 32.8135 69.1752 32.1103ZM76.1568 29.7496V27.2383C75.4034 27.0373 74.3988 26.8867 73.545 26.8867C71.8875 26.8867 70.2802 27.3889 70.2802 28.946C70.2802 30.2519 71.3852 30.9048 72.8418 30.9048C74.0975 30.9048 75.3029 30.4026 76.1568 29.7496Z" fill="#737373"/>
<path d="M82.5859 38.7403L86.2022 31.3067L80.627 19.4028H83.3393L85.6497 24.4255C86.2525 25.7817 86.9054 27.2382 87.4579 28.4437H87.5081C88.1109 27.1378 88.7136 25.7817 89.3163 24.4255L91.6268 19.4028H94.1884L85.1475 38.7403H82.5859Z" fill="#737373"/>
</svg>
