<svg width="125" height="34" viewBox="0 0 125 34" fill="none" xmlns="http://www.w3.org/2000/svg">
<g opacity="0.95">
<path d="M12.1911 27.2746V23.5038H17.7781C18.7728 23.5038 19.4801 23.3308 19.9001 22.9847C20.3311 22.6387 20.5467 22.1196 20.5467 21.4275V21.168C20.5467 20.4759 20.3311 19.9568 19.9001 19.6108C19.4801 19.2546 18.7562 19.0765 17.7283 19.0765H12.1082V15.5957H17.5957C18.5573 15.5957 19.237 15.4227 19.6348 15.0766C20.0327 14.7306 20.2317 14.2268 20.2317 13.5652V13.4126C20.2317 12.7612 20.0327 12.2727 19.6348 11.947C19.237 11.6111 18.5573 11.4432 17.5957 11.4432H12.0917V7.76393H18.1428C20.7069 7.76393 22.5471 8.16086 23.6634 8.95473C24.7797 9.73841 25.3378 10.8987 25.3378 12.4355V12.6645C25.3378 13.8248 25.0063 14.7255 24.3431 15.3667C23.691 16.0079 22.6632 16.3692 21.2595 16.4506V16.6185C22.8179 16.8119 23.9563 17.2954 24.6747 18.0689C25.3931 18.8424 25.7523 19.9263 25.7523 21.3207V21.7329C25.7523 23.5648 25.1665 24.949 23.995 25.8854C22.8345 26.8115 20.9722 27.2746 18.408 27.2746H12.1911ZM8.49414 27.2746V7.76393H13.4677V27.2746H8.49414Z" fill="#737373"/>
<path d="M35.246 27.7021C32.6156 27.7021 30.6262 27.1016 29.2778 25.9006C27.9405 24.6895 27.2718 22.9898 27.2718 20.8016V18.8322C27.2718 16.6135 27.946 14.8934 29.2944 13.6721C30.6428 12.4406 32.6266 11.8248 35.246 11.8248C37.8654 11.8248 39.8438 12.4406 41.1811 13.6721C42.5295 14.8934 43.2037 16.6135 43.2037 18.8322V20.8016C43.2037 22.9898 42.535 24.6895 41.1977 25.9006C39.8604 27.1016 37.8765 27.7021 35.246 27.7021ZM35.246 24.0228C36.1855 24.0228 36.8984 23.7633 37.3847 23.2442C37.882 22.715 38.1307 21.9669 38.1307 21.0001V18.6337C38.1307 17.616 37.882 16.8425 37.3847 16.3132C36.8984 15.784 36.1855 15.5194 35.246 15.5194C34.3066 15.5194 33.5882 15.784 33.0908 16.3132C32.6045 16.8425 32.3614 17.616 32.3614 18.6337V21.0001C32.3614 21.9669 32.6045 22.715 33.0908 23.2442C33.5882 23.7633 34.3066 24.0228 35.246 24.0228Z" fill="#737373"/>
<path d="M52.7156 27.7021C50.0851 27.7021 48.0957 27.1016 46.7473 25.9006C45.41 24.6895 44.7413 22.9898 44.7413 20.8016V18.8322C44.7413 16.6135 45.4155 14.8934 46.7639 13.6721C48.1123 12.4406 50.0962 11.8248 52.7156 11.8248C55.335 11.8248 57.3133 12.4406 58.6506 13.6721C59.999 14.8934 60.6732 16.6135 60.6732 18.8322V20.8016C60.6732 22.9898 60.0045 24.6895 58.6672 25.9006C57.3299 27.1016 55.346 27.7021 52.7156 27.7021ZM52.7156 24.0228C53.655 24.0228 54.3679 23.7633 54.8542 23.2442C55.3515 22.715 55.6002 21.9669 55.6002 21.0001V18.6337C55.6002 17.616 55.3515 16.8425 54.8542 16.3132C54.3679 15.784 53.655 15.5194 52.7156 15.5194C51.7761 15.5194 51.0577 15.784 50.5604 16.3132C50.0741 16.8425 49.8309 17.616 49.8309 18.6337V21.0001C49.8309 21.9669 50.0741 22.715 50.5604 23.2442C51.0577 23.7633 51.7761 24.0228 52.7156 24.0228Z" fill="#737373"/>
<path d="M73.1858 27.2746L68.378 20.8016H67.0518V18.0536H68.378L73.0532 12.2676H78.8722L72.6719 19.7177V18.8322L79.1043 27.2746H73.1858ZM62.8077 27.2746V7.10747H67.8475V27.2746H62.8077Z" fill="#737373"/>
<path d="M80.4122 27.2746V7.76393H85.5681V27.2746H80.4122ZM83.3797 20.481V16.4659H94.3712V20.481H83.3797ZM81.9042 11.779V7.76393H94.6199V11.779H81.9042Z" fill="#737373"/>
<path d="M96.6624 27.2746V12.2676H101.735V27.2746H96.6624ZM99.1989 10.8478C98.2484 10.8478 97.5576 10.6493 97.1266 10.2524C96.6955 9.84528 96.48 9.30077 96.48 8.61886V8.51199C96.48 7.83009 96.6955 7.29067 97.1266 6.89374C97.5576 6.49681 98.2484 6.29834 99.1989 6.29834C100.127 6.29834 100.807 6.49681 101.238 6.89374C101.68 7.29067 101.901 7.83009 101.901 8.51199V8.61886C101.901 9.31095 101.68 9.85545 101.238 10.2524C100.807 10.6493 100.127 10.8478 99.1989 10.8478Z" fill="#737373"/>
<path d="M110.982 27.6105C109.534 27.6105 108.379 27.412 107.517 27.0151C106.666 26.608 106.052 26.0024 105.676 25.1984C105.301 24.3943 105.113 23.402 105.113 22.2214V13.84H110.153V21.4733C110.153 22.2061 110.329 22.7455 110.683 23.0916C111.048 23.4274 111.722 23.5954 112.706 23.5954C113.247 23.5954 113.783 23.5394 114.314 23.4274C114.844 23.3155 115.325 23.173 115.756 23L115.325 26.8624C114.761 27.0863 114.109 27.2644 113.369 27.3968C112.639 27.5392 111.844 27.6105 110.982 27.6105ZM102.924 15.9926V12.3286H115.607L115.159 15.9926H102.924ZM105.179 12.6645L105.162 8.78679L110.186 8.34406L110.003 12.6645H105.179Z" fill="#737373"/>
</g>
</svg>
