<svg width="166" height="34" viewBox="0 0 166 34" fill="none" xmlns="http://www.w3.org/2000/svg">
<path d="M106.059 12.946C105.488 12.946 105.129 13.0528 105.129 13.4768C105.129 14.2841 106.27 13.9868 105.594 15.7273L103.692 20.779L101.727 15.7273C101.051 13.9868 102.255 14.2841 102.255 13.4768C102.255 13.0735 101.896 12.946 101.305 12.946H98.0924C97.522 12.946 97.1626 13.0528 97.1626 13.4768C97.1626 14.2841 98.0289 13.9868 98.7048 15.7058L101.494 22.7745C101.685 23.2415 101.811 23.7085 101.811 24.1755C101.811 25.1947 101.305 26.065 100.628 26.065C99.4871 26.065 99.5711 24.1548 98.3455 24.1548C97.5006 24.1755 97.0143 24.8975 97.0143 25.6402C97.0143 26.8714 98.2399 27.5935 99.5505 27.5935C102.171 27.5935 103.101 25.6824 104.263 22.647L106.947 15.7273C107.601 13.9868 108.489 14.2841 108.489 13.4768C108.489 13.0735 108.129 12.946 107.517 12.946H106.059Z" fill="#737373"/>
<path d="M158.119 19.888C157.359 20.6307 156.322 21.289 155.033 21.289C153.406 21.289 152.434 20.3335 151.991 19.3573C154.188 18.55 155.9 17.8925 158.056 16.9155C158.457 16.725 158.605 16.4278 158.541 16.0883C158.245 14.2625 156.787 12.734 154.252 12.734C151.294 12.734 148.779 15.0905 148.779 18.3595C148.779 21.2675 150.807 23.3474 153.808 23.3474C156.618 23.3474 158.372 21.607 158.795 20.4188C159.006 19.8027 158.541 19.4632 158.119 19.888ZM153.322 14.135C154.336 13.9438 155.372 14.708 155.668 15.9392C155.816 16.4915 155.541 16.6397 155.182 16.8095C154.041 17.298 152.836 17.7228 151.61 18.1467C151.505 17.7865 151.441 17.2765 151.441 16.8095C151.441 15.4516 152.096 14.2841 153.322 14.135Z" fill="#737373"/>
<path d="M139.42 21.501C138.955 21.5225 138.66 21.2252 138.428 20.355L137.392 16.364C136.927 14.602 136.124 12.734 133.42 12.734C131.391 12.734 129.785 13.8162 129.256 14.708C128.94 15.2388 129.383 15.5575 129.785 15.3025C130.545 14.8777 131.412 14.4745 132.363 14.4745C133.948 14.4745 134.37 15.536 134.751 16.8732C134.032 16.7673 133.609 16.7035 133.06 16.7035C130.059 16.7035 128.285 18.1682 128.285 20.206C128.285 21.968 129.806 23.3267 132.151 23.3267C133.42 23.3267 134.856 22.8382 135.85 21.7345C136.166 22.796 136.716 23.3052 137.646 23.3052C138.66 23.3052 139.822 22.5832 139.822 21.862C139.822 21.6069 139.653 21.501 139.42 21.501ZM133.293 21.8404C131.919 21.8404 131.032 20.9487 131.01 19.739C131.01 18.5715 131.898 17.8072 133.398 17.8072C134.074 17.8072 134.898 18.02 135.047 18.5077C135.236 19.2504 135.427 19.7812 135.49 20.1422C135.659 21.0124 134.476 21.8404 133.293 21.8404Z" fill="#737373"/>
<path d="M81.4866 21.501C81.0217 21.5225 80.7266 21.2252 80.4942 20.355L79.4581 16.364C78.9932 14.602 78.1904 12.734 75.486 12.734C73.4575 12.734 71.851 13.8162 71.3226 14.708C71.0061 15.2388 71.4496 15.5575 71.851 15.3025C72.6118 14.8777 73.4781 14.4745 74.4293 14.4745C76.0143 14.4745 76.4363 15.536 76.8172 16.8732C76.0984 16.7673 75.6756 16.7035 75.1266 16.7035C72.1255 16.7035 70.3508 18.1682 70.3508 20.206C70.3508 21.968 71.8724 23.3267 74.2174 23.3267C75.486 23.3267 76.9227 22.8382 77.9159 21.7345C78.2324 22.796 78.7822 23.3052 79.712 23.3052C80.7266 23.3052 81.8888 22.5832 81.8888 21.862C81.8888 21.6069 81.719 21.501 81.4866 21.501ZM75.359 21.8404C73.985 21.8404 73.0981 20.9487 73.0767 19.739C73.0767 18.5715 73.9644 17.8072 75.4645 17.8072C76.1404 17.8072 76.9647 18.02 77.1131 18.5077C77.3026 19.2504 77.493 19.7812 77.5565 20.1422C77.7255 21.0124 76.5418 21.8404 75.359 21.8404Z" fill="#737373"/>
<path d="M68.5559 19.888C67.7959 20.6307 66.7598 21.289 65.4707 21.289C63.8436 21.289 62.8718 20.3335 62.4284 19.3573C64.6258 18.55 66.3378 17.8925 68.4933 16.9155C68.8947 16.725 69.0422 16.4278 68.9787 16.0883C68.6828 14.2625 67.2247 12.734 64.6893 12.734C61.731 12.734 59.2162 15.0905 59.2162 18.3595C59.2162 21.2675 61.2447 23.3474 64.2458 23.3474C67.0558 23.3474 68.8098 21.607 69.2326 20.4188C69.4436 19.8027 68.9788 19.4632 68.5559 19.888ZM63.7595 14.135C64.7734 13.9438 65.8095 14.708 66.1054 15.9392C66.2529 16.4915 65.9784 16.6397 65.6191 16.8095C64.4783 17.298 63.2732 17.7228 62.0475 18.1467C61.942 17.7865 61.8786 17.2765 61.8786 16.8095C61.8786 15.4516 62.5339 14.2841 63.7595 14.135Z" fill="#737373"/>
<path fill-rule="evenodd" clip-rule="evenodd" d="M22.9886 2.14404C31.1332 2.14404 37.7957 8.83682 37.7957 17.0183C37.7957 25.199 31.1332 31.8926 22.9886 31.8926C14.845 31.8926 8.18164 25.199 8.18164 17.0183C8.18164 8.83682 14.845 2.14404 22.9886 2.14404ZM22.9886 3.79095C15.7467 3.79095 9.82192 9.74348 9.82192 17.0183C9.82192 24.2932 15.7467 30.2449 22.9886 30.2449C30.2306 30.2449 36.1562 24.2932 36.1562 17.0183C36.1562 9.74348 30.2306 3.79095 22.9886 3.79095Z" fill="#737373"/>
<path fill-rule="evenodd" clip-rule="evenodd" d="M17.0599 16.5398L22.8049 10.9905C22.908 10.8911 23.0712 10.8919 23.1726 10.9913L23.1742 10.9938L28.8591 16.5406L28.8608 16.5422L29.0471 16.7087C29.1048 16.7617 29.1344 16.8337 29.1344 16.9066H29.1361V25.1212C29.1361 25.2686 29.0174 25.3878 28.8707 25.3878H24.7997V20.3925C24.7997 20.2459 24.681 20.1267 24.5342 20.1267H21.4433C21.2974 20.1267 21.1787 20.2459 21.1787 20.3925V25.3878H17.1077C16.9609 25.3878 16.8422 25.2686 16.8422 25.1212V16.8627C16.8422 16.7799 16.8793 16.7062 16.9379 16.6573L17.0599 16.5398Z" fill="#737373"/>
<path d="M147.047 20.7367C146.604 21.0762 146.075 21.3527 145.525 21.3527C144.575 21.3527 144.279 20.7789 144.3 18.8902C144.321 16.9585 144.321 15.5145 144.321 14.347L146.139 14.4107C146.562 14.4323 146.92 14.3263 147.047 13.6895C147.174 13.0528 146.836 12.946 146.435 12.946H144.343C144.363 12.2885 144.385 11.7147 144.448 11.1418C144.47 10.8238 144.279 10.5472 143.983 10.5472C143.856 10.5472 143.687 10.5688 143.201 10.8445C142.335 11.3753 141.321 12.2033 140.539 13.0097C140.306 13.2225 140.222 13.4767 140.222 13.7318C140.222 14.0928 140.391 14.284 140.962 14.284H141.532C141.49 15.3878 141.468 17.0007 141.468 18.8902V19.994C141.468 22.1592 142.567 23.3474 144.47 23.3474C146.244 23.3474 147.343 22.1377 147.66 21.1822C147.808 20.7367 147.448 20.4394 147.047 20.7367Z" fill="#737373"/>
<path d="M95.5364 20.7367C95.0929 21.0762 94.5646 21.3527 94.0148 21.3527C93.0645 21.3527 92.7685 20.7789 92.7891 18.8902C92.8106 16.9585 92.8106 15.5145 92.8106 14.347L94.6281 14.4107C95.0509 14.4323 95.4095 14.3263 95.5364 13.6895C95.6633 13.0528 95.3254 12.946 94.924 12.946H92.832C92.8526 12.2885 92.874 11.7147 92.9375 11.1418C92.9589 10.8238 92.7685 10.5472 92.4726 10.5472C92.3457 10.5472 92.1767 10.5688 91.6904 10.8445C90.8241 11.3753 89.8103 12.2033 89.0281 13.0097C88.7956 13.2225 88.7115 13.4767 88.7115 13.7318C88.7115 14.0928 88.8805 14.284 89.4509 14.284H90.0213C89.9792 15.3878 89.9578 17.0007 89.9578 18.8902V19.994C89.9578 22.1592 91.0566 23.3474 92.9589 23.3474C94.7336 23.3474 95.8323 22.1377 96.1497 21.1822C96.2972 20.7367 95.9378 20.4394 95.5364 20.7367Z" fill="#737373"/>
<path fill-rule="evenodd" clip-rule="evenodd" d="M22.9887 9.63085L15.136 17.1226C14.9241 17.3247 14.5887 17.3164 14.3875 17.1036C14.1856 16.8908 14.1938 16.5538 14.4057 16.3518L22.6244 8.51221C22.8288 8.3168 23.1494 8.3168 23.3538 8.51221L31.5717 16.3518C31.7835 16.5538 31.7918 16.8908 31.5907 17.1036C31.3895 17.3164 31.0541 17.3247 30.8422 17.1226L22.9887 9.63085Z" fill="#737373"/>
<path fill-rule="evenodd" clip-rule="evenodd" d="M18.2871 13.5283L17.2444 15.0278H16.3113V10.4183H18.944V13.4314L18.2871 13.5283Z" fill="#737373"/>
<path d="M125.392 11.0574C125.329 9.48662 126.576 9.74082 126.576 8.87059C126.576 8.42512 126.28 8.27608 125.561 8.27608H123.237C122.857 8.27608 122.603 8.44582 122.434 8.82836L118.123 18.1683L114.15 8.80683C114.003 8.44582 113.728 8.27608 113.347 8.27608H110.896C110.178 8.27608 109.882 8.42512 109.882 8.87059C109.882 9.72012 111.128 9.55038 111.065 11.0574L110.663 20.4817C110.6 21.9258 109.396 21.862 109.396 22.5625C109.396 22.9873 109.67 23.1139 110.389 23.1139H112.27C112.924 23.1139 113.242 23.0295 113.242 22.5832C113.242 21.8405 112.122 21.9258 112.185 20.4817L112.46 12.1189L116.559 21.9042C116.665 22.2015 116.919 22.3497 117.384 22.2652C117.806 22.1593 117.976 22.0102 118.144 21.6492L122.603 11.9913L122.772 20.0147C122.793 21.862 121.568 21.4795 121.568 22.5203C121.568 22.9873 121.906 23.1355 122.73 23.1355H125.984C126.808 23.1355 127.104 22.9873 127.104 22.5203C127.104 21.4157 125.772 21.9258 125.688 20.0147L125.392 11.0574Z" fill="#737373"/>
<path d="M54.4423 17.1068C56.1963 16.4063 57.1055 14.9846 57.1055 13.0528C57.1055 10.5266 54.9072 8.27608 50.3647 8.27608H45.7579C44.9122 8.27608 44.5743 8.40359 44.5743 8.87059C44.5743 9.97432 45.9689 9.12561 45.9689 11.8854V19.5908C45.9689 22.1162 44.5743 21.5225 44.5743 22.541C44.5743 22.9873 44.9122 23.1355 45.7579 23.1355H49.1176C49.9839 23.1355 50.2798 22.9873 50.2798 22.541C50.2798 21.5225 48.9486 22.1162 48.9486 19.5908V17.8288C48.9486 17.1705 49.519 17.2127 50.4488 17.3403C51.4206 17.4893 51.7593 17.616 52.0759 18.232L53.2595 20.355C53.9568 21.6285 52.8787 21.7767 52.8787 22.5203C52.8787 22.9873 53.2175 23.1355 53.8933 23.1355H56.9992C57.7814 23.1355 58.0773 22.9873 58.0773 22.541C58.0773 21.6285 57.169 21.9258 56.3447 20.461L54.4423 17.1068ZM51.0406 16.1521C50.1323 16.0668 48.9486 15.8548 48.9486 15.1543V10.1018C48.9486 9.65636 49.1176 9.52885 50.2584 9.55038C52.5622 9.55038 54.0409 11.2478 54.0409 13.3493C54.0409 14.9846 53.0905 16.364 51.0406 16.1521Z" fill="#737373"/>
<path d="M83.7887 20.1853C83.7887 22.1592 82.732 21.6707 82.732 22.5832C82.732 23.0079 83.112 23.1354 83.7038 23.1354H86.7256C87.3174 23.1354 87.6553 23.0295 87.6553 22.6047C87.6553 21.6707 86.6415 22.1592 86.6415 20.1853V11.6088L86.6621 8.70082C86.6621 8.25535 86.5146 8.06408 86.1552 8.06408C85.8172 8.06408 84.2957 8.57331 83.4294 8.99807C82.9224 9.23157 82.7535 9.37978 82.7535 9.65634C82.7535 10.2931 83.7673 10.144 83.7673 11.6088L83.7887 20.1853Z" fill="#737373"/>
</svg>
