<svg width="18" height="18" viewBox="0 0 18 18" fill="none" xmlns="http://www.w3.org/2000/svg">
<path d="M14.7019 14.705H12.3034V10.9457C12.3034 10.0493 12.2854 8.8955 11.0524 8.8955C9.80229 8.8955 9.61149 9.8711 9.61149 10.88V14.705H7.21209V6.9749H9.51609V8.0279H9.54759C9.86979 7.4213 10.6528 6.7796 11.8228 6.7796C14.2528 6.7796 14.7028 8.3798 14.7028 10.4615V14.705H14.7019ZM4.50309 5.9174C4.31999 5.91764 4.13864 5.88174 3.96945 5.81175C3.80025 5.74176 3.64653 5.63907 3.5171 5.50955C3.38767 5.38004 3.28508 5.22626 3.2152 5.05701C3.14532 4.88777 3.10954 4.7064 3.10989 4.5233C3.11007 4.24775 3.19195 3.97845 3.34519 3.74943C3.49842 3.52042 3.71613 3.34199 3.97077 3.23671C4.22541 3.13143 4.50555 3.10402 4.77577 3.15795C5.04599 3.21188 5.29415 3.34473 5.48887 3.5397C5.68358 3.73467 5.81611 3.983 5.8697 4.25329C5.92328 4.52357 5.89551 4.80368 5.78989 5.05819C5.68428 5.31269 5.50557 5.53017 5.27636 5.68311C5.04715 5.83604 4.77774 5.91758 4.50219 5.9174H4.50309ZM5.70549 14.705H3.29979V6.9749H5.70639V14.705H5.70549ZM15.9034 0.899902H2.09649C1.43409 0.899902 0.900391 1.4219 0.900391 2.0672V15.9326C0.900391 16.5779 1.43499 17.0999 2.09559 17.0999H15.8998C16.5604 17.0999 17.1004 16.5779 17.1004 15.9326V2.0672C17.1004 1.4219 16.5604 0.899902 15.8998 0.899902H15.9025H15.9034Z" fill="#292929"/>
</svg>
