<svg width="123" height="26" viewBox="0 0 123 26" fill="none" xmlns="http://www.w3.org/2000/svg">
<path fill-rule="evenodd" clip-rule="evenodd" d="M3.25204 9.29237C3.24233 9.42695 3.23748 9.5635 3.23748 9.70201C3.23748 10.6667 3.43647 11.4702 3.83447 12.1127C4.23149 12.7404 4.86683 13.263 5.74048 13.6805C6.62967 14.099 7.79696 14.4767 9.24236 14.8136C10.2907 15.0553 11.0853 15.3048 11.626 15.5621C12.1657 15.8028 12.5312 16.0759 12.7224 16.3814C12.9127 16.6712 13.0078 17.017 13.0078 17.4188C13.0078 17.852 12.8966 18.2213 12.6743 18.5269C12.4521 18.8166 12.1264 19.0337 11.6973 19.1781C11.2838 19.3235 10.7756 19.3957 10.1728 19.3947C9.44185 19.3957 8.82204 19.2754 8.31338 19.0337C7.82122 18.7931 7.4242 18.4394 7.12231 17.9728C6.83594 17.4905 6.6452 16.9119 6.55007 16.237L2.90549 16.405C2.98412 17.627 3.31756 18.688 3.90582 19.5878C4.4931 20.4886 5.31094 21.188 6.35932 21.6861C7.4077 22.1851 8.66284 22.4346 10.1247 22.4346C11.4585 22.4346 12.6103 22.2254 13.58 21.8069C14.5643 21.3884 15.3191 20.7936 15.8442 20.0225C16.384 19.2346 16.6538 18.3102 16.6538 17.2493C16.6538 16.3819 16.4631 15.6103 16.0816 14.9344C15.7001 14.2596 15.0487 13.681 14.1275 13.1986C13.2218 12.7006 11.9827 12.2905 10.4101 11.9683C9.48892 11.7757 8.77447 11.5748 8.26678 11.3656C7.77366 11.1573 7.41595 10.9162 7.19365 10.6421C6.98689 10.3533 6.88351 9.99965 6.88351 9.58118C6.88351 9.48196 6.8903 9.38569 6.90389 9.29237H3.25204Z" fill="#DC8E3A"/>
<path fill-rule="evenodd" clip-rule="evenodd" d="M16.2287 7.25155L12.9467 8.52908H16.6538C16.5679 8.08703 16.4049 7.62877 16.2287 7.25155Z" fill="#DC8E3A"/>
<path fill-rule="evenodd" clip-rule="evenodd" d="M14.8672 5.38315L12.3919 7.90579L15.6186 6.22894C15.3953 5.92638 15.1449 5.64445 14.8672 5.38315Z" fill="#DC8E3A"/>
<path fill-rule="evenodd" clip-rule="evenodd" d="M13.1505 4.21024L11.559 7.40481L14.0314 4.71418C13.7518 4.52557 13.4582 4.35759 13.1505 4.21024Z" fill="#DC8E3A"/>
<path fill-rule="evenodd" clip-rule="evenodd" d="M11.3522 3.62524L10.7509 7.16461L12.2536 3.85217C11.9585 3.75786 11.658 3.68222 11.3522 3.62524Z" fill="#DC8E3A"/>
<path fill-rule="evenodd" clip-rule="evenodd" d="M9.54815 3.51474L9.99954 7.09683L10.4495 3.51474C10.3 3.50491 10.15 3.5 9.99954 3.5C9.84908 3.5 9.69862 3.50491 9.54815 3.51474Z" fill="#DC8E3A"/>
<path fill-rule="evenodd" clip-rule="evenodd" d="M3.7704 7.25155L7.05241 8.52908H3.34523C3.43114 8.08703 3.59421 7.62877 3.7704 7.25155Z" fill="#DC8E3A"/>
<path fill-rule="evenodd" clip-rule="evenodd" d="M5.13185 5.38315L7.60574 7.90579L4.38052 6.22894C4.60281 5.92638 4.85325 5.64445 5.13185 5.38315Z" fill="#DC8E3A"/>
<path fill-rule="evenodd" clip-rule="evenodd" d="M6.8471 4.21024L8.44006 7.40481L5.96763 4.71418C6.2472 4.52557 6.54036 4.35759 6.8471 4.21024Z" fill="#DC8E3A"/>
<path fill-rule="evenodd" clip-rule="evenodd" d="M8.64682 3.62524L9.24672 7.16461L7.7455 3.85217C8.03963 3.75786 8.34007 3.68222 8.64682 3.62524Z" fill="#DC8E3A"/>
<path d="M24.3495 22.5C23.2771 22.5 22.3594 22.2521 21.5964 21.7564C20.854 21.24 20.2765 20.5067 19.8641 19.5565C19.4516 18.5857 19.2454 17.429 19.2454 16.0863V6.51232H22.8028V15.9624C22.8028 17.0572 23.04 17.9041 23.5143 18.5031C24.0092 19.1021 24.6898 19.4016 25.5559 19.4016C26.7108 19.4016 27.6388 18.9162 28.3399 17.9454C29.0411 16.9539 29.3917 15.6526 29.3917 14.0414L30.1032 16.0554C30.1032 17.3154 29.8557 18.4308 29.3608 19.4016C28.8658 20.3724 28.1853 21.1367 27.3191 21.6944C26.453 22.2315 25.4631 22.5 24.3495 22.5ZM29.3917 6.51232H32.9491V22.0043H29.3917V6.51232Z" fill="#DC8E3A"/>
<path d="M55.5793 12.5542C55.5793 11.4388 55.3525 10.5919 54.8988 10.0135C54.4451 9.41448 53.7852 9.11496 52.919 9.11496C51.826 9.11496 50.9496 9.60038 50.2897 10.5712C49.6297 11.5214 49.2998 12.8227 49.2998 14.4752L48.3099 12.4612C48.3099 11.2425 48.5574 10.1478 49.0523 9.17693C49.5679 8.18545 50.269 7.41085 51.1558 6.85314C52.0632 6.29543 53.0634 6.01658 54.1564 6.01658C55.1875 6.01658 56.0743 6.27477 56.8167 6.79117C57.5591 7.28692 58.1262 8.0202 58.5181 8.99103C58.9305 9.9412 59.1367 11.0876 59.1367 12.4302V22.0043H55.5793V12.5542ZM35.9054 6.51232H39.4628V22.0043H35.9054V6.51232ZM45.7424 12.5542C45.7424 11.4388 45.5155 10.5919 45.0618 10.0135C44.6081 9.41448 43.9482 9.11496 43.0821 9.11496C41.9891 9.11496 41.1126 9.60038 40.4527 10.5712C39.7928 11.5214 39.4628 12.8227 39.4628 14.4752L38.7823 12.4612C38.7823 11.2012 39.0091 10.0858 39.4628 9.11496C39.9371 8.14414 40.5971 7.39019 41.4426 6.85314C42.2881 6.29543 43.2471 6.01658 44.3194 6.01658C45.3506 6.01658 46.2373 6.27477 46.9797 6.79117C47.7221 7.28692 48.2893 8.0202 48.6811 8.99103C49.0935 9.9412 49.2998 11.0876 49.2998 12.4302V22.0043H45.7424V12.5542Z" fill="#DC8E3A"/>
<path d="M66.9306 22.5C65.8582 22.5 64.9405 22.2521 64.1775 21.7564C63.4351 21.24 62.8576 20.5067 62.4452 19.5565C62.0327 18.5857 61.8265 17.429 61.8265 16.0863V6.51232H65.3839V15.9624C65.3839 17.0572 65.6211 17.9041 66.0954 18.5031C66.5903 19.1021 67.2709 19.4016 68.137 19.4016C69.2919 19.4016 70.2199 18.9162 70.9211 17.9454C71.6222 16.9539 71.9728 15.6526 71.9728 14.0414L72.6843 16.0554C72.6843 17.3154 72.4368 18.4308 71.9419 19.4016C71.4469 20.3724 70.7664 21.1367 69.9002 21.6944C69.0341 22.2315 68.0442 22.5 66.9306 22.5ZM71.9728 6.51232H75.5302V22.0043H71.9728V6.51232Z" fill="#DC8E3A"/>
<path d="M88.6328 12.5542C88.6328 11.4594 88.3854 10.6125 87.8904 10.0135C87.4161 9.41448 86.7459 9.11496 85.8797 9.11496C84.7249 9.11496 83.7968 9.61071 83.0957 10.6022C82.3945 11.573 82.0439 12.864 82.0439 14.4752L81.3634 12.4612C81.3634 11.2012 81.6005 10.0858 82.0749 9.11496C82.5698 8.14414 83.2503 7.39019 84.1165 6.85314C84.9826 6.29543 85.9725 6.01658 87.0861 6.01658C88.1585 6.01658 89.0762 6.27477 89.8393 6.79117C90.6023 7.28692 91.1797 8.0202 91.5715 8.99103C91.984 9.9412 92.1902 11.0876 92.1902 12.4302V22.0043H88.6328V12.5542ZM78.4865 6.51232H82.0439V22.0043H78.4865V6.51232Z" fill="#DC8E3A"/>
<path d="M99.7492 22.5C98.7387 22.5 97.8313 22.2934 97.027 21.8803C96.2227 21.4672 95.5937 20.8992 95.14 20.1762C94.6863 19.4533 94.4595 18.6373 94.4595 17.7285C94.4595 16.3032 95.0266 15.1671 96.1609 14.3203C97.2951 13.4734 98.9655 12.9363 101.172 12.7091C102.183 12.5852 102.946 12.4509 103.461 12.3063C103.977 12.1617 104.327 11.9758 104.513 11.7486C104.719 11.5214 104.812 11.2012 104.791 10.7881C104.771 10.251 104.513 9.83792 104.018 9.54874C103.523 9.25956 102.863 9.11496 102.038 9.11496C100.945 9.11496 100.069 9.35251 99.4089 9.82759C98.749 10.282 98.419 10.8914 98.419 11.6556L94.8926 11.3458C94.8926 10.313 95.1916 9.39382 95.7897 8.58824C96.3877 7.78266 97.2126 7.15265 98.2644 6.69822C99.3161 6.24379 100.512 6.01658 101.853 6.01658C103.193 6.01658 104.358 6.25412 105.348 6.72921C106.338 7.20429 107.091 7.88594 107.606 8.77414C108.143 9.64169 108.411 10.6642 108.411 11.8415V22.0043H104.853V17.6355L105.379 16.4272C105.379 17.6252 105.142 18.689 104.668 19.6185C104.193 20.5274 103.533 21.24 102.688 21.7564C101.842 22.2521 100.863 22.5 99.7492 22.5ZM100.646 19.4016C101.492 19.4016 102.234 19.1744 102.873 18.72C103.513 18.2449 103.997 17.5942 104.327 16.768C104.678 15.9211 104.853 14.9503 104.853 13.8555V12.2134L105.317 12.4922C105.317 13.2152 104.967 13.8142 104.266 14.2893C103.585 14.7437 102.626 15.0329 101.389 15.1568C100.296 15.2808 99.4708 15.539 98.914 15.9314C98.3778 16.3032 98.1097 16.799 98.1097 17.4186C98.1097 18.0177 98.3468 18.5031 98.8212 18.8749C99.2955 19.226 99.9039 19.4016 100.646 19.4016Z" fill="#DC8E3A"/>
<path d="M111.069 6.51232H114.626V12.0584L114.162 14.1034C114.162 12.4922 114.317 11.1186 114.626 9.98251C114.935 8.84644 115.379 7.98922 115.956 7.41085C116.534 6.81183 117.235 6.51232 118.06 6.51232H120.905V9.61071H118.369C117.482 9.61071 116.76 9.80694 116.204 10.1994C115.647 10.5919 115.245 11.2115 114.997 12.0584C114.75 12.8847 114.626 13.9794 114.626 15.3427V22.0043H111.069V6.51232Z" fill="#DC8E3A"/>
</svg>
