<svg width="125" height="26" viewBox="0 0 125 26" fill="none" xmlns="http://www.w3.org/2000/svg">
<path fill-rule="evenodd" clip-rule="evenodd" d="M2.84873 9.40177C2.83912 9.53309 2.83433 9.66632 2.83433 9.80147C2.83433 10.7427 3.03121 11.5268 3.42498 12.1536C3.81779 12.7661 4.44638 13.276 5.31076 13.6834C6.1905 14.0917 7.3454 14.4602 8.77546 14.789C9.81271 15.0248 10.5988 15.2682 11.1338 15.5194C11.6677 15.7542 12.0293 16.0207 12.2185 16.3188C12.4068 16.6015 12.5009 16.9389 12.5009 17.3309C12.5009 17.7536 12.3909 18.114 12.171 18.4121C11.9511 18.6949 11.6289 18.9067 11.2043 19.0476C10.7952 19.1894 10.2924 19.2599 9.69602 19.2589C8.97282 19.2599 8.3596 19.1425 7.85634 18.9067C7.36941 18.6719 6.9766 18.3268 6.67791 17.8715C6.39459 17.4009 6.20587 16.8363 6.11175 16.1779L2.50586 16.3418C2.58365 17.5341 2.91356 18.5693 3.49557 19.4473C4.07662 20.3262 4.88577 21.0087 5.92302 21.4946C6.96027 21.9815 8.20209 22.225 9.64848 22.225C10.9681 22.225 12.1076 22.0208 13.0671 21.6125C14.0409 21.2042 14.7877 20.6238 15.3072 19.8714C15.8412 19.1027 16.1082 18.2008 16.1082 17.1656C16.1082 16.3192 15.9195 15.5663 15.5421 14.9069C15.1646 14.2484 14.5202 13.6839 13.6087 13.2132C12.7127 12.7273 11.4867 12.3271 9.93083 12.0127C9.0194 11.8249 8.31254 11.6288 7.81024 11.4247C7.32235 11.2215 6.96843 10.9862 6.7485 10.7187C6.54393 10.4369 6.44164 10.0919 6.44164 9.68357C6.44164 9.58676 6.44837 9.49283 6.46182 9.40177H2.84873Z" fill="#DC8E3A"/>
<path fill-rule="evenodd" clip-rule="evenodd" d="M15.6876 7.41049L12.4404 8.65701H16.1083C16.0233 8.22569 15.8619 7.77855 15.6876 7.41049Z" fill="#DC8E3A"/>
<path fill-rule="evenodd" clip-rule="evenodd" d="M14.3406 5.58744L11.8915 8.04885L15.084 6.4127C14.8631 6.11749 14.6153 5.8424 14.3406 5.58744Z" fill="#DC8E3A"/>
<path fill-rule="evenodd" clip-rule="evenodd" d="M12.6421 4.443L11.0675 7.56003L13.5137 4.93471C13.2371 4.75068 12.9465 4.58678 12.6421 4.443Z" fill="#DC8E3A"/>
<path fill-rule="evenodd" clip-rule="evenodd" d="M10.8629 3.8722L10.268 7.32566L11.7547 4.09362C11.4627 4.0016 11.1655 3.9278 10.8629 3.8722Z" fill="#DC8E3A"/>
<path fill-rule="evenodd" clip-rule="evenodd" d="M9.078 3.76438L9.5246 7.25953L9.96975 3.76438C9.82184 3.75479 9.67347 3.75 9.5246 3.75C9.37574 3.75 9.22687 3.75479 9.078 3.76438Z" fill="#DC8E3A"/>
<path fill-rule="evenodd" clip-rule="evenodd" d="M3.36159 7.41049L6.60875 8.65701H2.94093C3.02593 8.22569 3.18727 7.77855 3.36159 7.41049Z" fill="#DC8E3A"/>
<path fill-rule="evenodd" clip-rule="evenodd" d="M4.70859 5.58744L7.15621 8.04885L3.96523 6.4127C4.18516 6.11749 4.43295 5.8424 4.70859 5.58744Z" fill="#DC8E3A"/>
<path fill-rule="evenodd" clip-rule="evenodd" d="M6.40563 4.443L7.98167 7.56003L5.5355 4.93471C5.8121 4.75068 6.10214 4.58678 6.40563 4.443Z" fill="#DC8E3A"/>
<path fill-rule="evenodd" clip-rule="evenodd" d="M8.18624 3.8722L8.77977 7.32566L7.29449 4.09362C7.5855 4.0016 7.88275 3.9278 8.18624 3.8722Z" fill="#DC8E3A"/>
<path fill-rule="evenodd" clip-rule="evenodd" d="M25.8705 22.25C24.4196 22.25 23.1628 21.985 22.1002 21.4549C21.0537 20.9264 20.2401 20.1724 19.6594 19.1928C19.0788 18.1986 18.7884 17.0354 18.7884 15.7029V4.75H22.4641V15.7029C22.4641 16.8098 22.7536 17.6686 23.3327 18.2792C23.9295 18.8721 24.7755 19.1686 25.8705 19.1686C26.9655 19.1686 27.8025 18.8721 28.3816 18.2792C28.9623 17.6686 29.2526 16.8098 29.2526 15.7029V4.75H32.9258V15.7029C32.9258 17.0354 32.6355 18.1986 32.0548 19.1928C31.492 20.1724 30.6792 20.9264 29.6165 21.4549C28.5522 21.985 27.3036 22.25 25.8705 22.25ZM35.9901 21.8657V4.77417H40.8934L45.2679 17.2207L49.618 4.77417H54.5238V21.8657H50.8505V10.792L46.8133 21.8174H43.6738L39.6609 10.792V21.8657H35.9901ZM64.6676 22.25C63.2184 22.25 61.9617 21.985 60.8974 21.4549C59.8509 20.9264 59.0373 20.1724 58.4566 19.1928C57.8776 18.1986 57.588 17.0354 57.588 15.7029V4.75H61.2589V15.7029C61.2589 16.8098 61.5492 17.6686 62.1299 18.2792C62.7267 18.8721 63.5726 19.1686 64.6676 19.1686C65.7627 19.1686 66.6005 18.8721 67.1812 18.2792C67.7602 17.6686 68.0498 16.8098 68.0498 15.7029V4.75H71.723V15.7029C71.723 17.0354 71.4335 18.1986 70.8544 19.1928C70.2899 20.1724 69.4756 20.9264 68.4113 21.4549C67.3486 21.985 66.1007 22.25 64.6676 22.25ZM74.7849 21.8657V4.77417H78.8463L85.659 16.5705V4.77417H89.3347V21.8657H85.2247L78.4605 10.4802V21.8657H74.7849ZM90.822 21.8657L97.0088 4.77417H101.359L107.546 21.8657H103.727L102.47 18.2309H95.8733L94.6165 21.8657H90.822ZM96.9117 15.222H101.456L99.1826 8.62653L96.9117 15.222ZM108.652 21.8657V4.77658H116.166C117.423 4.77658 118.51 4.98523 119.427 5.40253C120.362 5.81822 121.079 6.41114 121.579 7.18129C122.077 7.93533 122.327 8.83438 122.328 9.87844C122.327 10.6647 122.158 11.3623 121.821 11.9714C121.498 12.582 121.047 13.0799 120.468 13.465C119.903 13.85 119.25 14.0909 118.51 14.1876C119.396 14.1291 120.333 14.1206 121.047 14.7169C121.643 15.1986 121.981 15.9446 122.062 16.9548L122.496 21.8657H118.75L118.437 17.5324C118.388 16.875 118.179 16.3933 117.808 16.0872C117.454 15.7665 116.842 15.6062 115.972 15.6062H112.323V21.8657H108.652ZM112.325 12.549H115.756C116.642 12.549 117.327 12.3492 117.811 11.9496C118.309 11.5307 118.558 10.9442 118.558 10.1902C118.558 9.42166 118.309 8.84405 117.811 8.45736C117.311 8.05617 116.586 7.85558 115.635 7.85558H112.325V12.549Z" fill="#DC8E3A"/>
</svg>
