<svg width="124" height="20" viewBox="0 0 124 20" fill="none" xmlns="http://www.w3.org/2000/svg">
<path d="M7.5951 0.294434C9.586 0.294434 11.1198 0.761685 12.1965 1.69619C13.2732 2.61038 13.9436 4.03245 14.2077 5.96241L11.0995 6.38903C10.9979 4.94664 10.6424 3.8293 10.0329 3.037C9.42348 2.2447 8.60071 1.84856 7.56463 1.84856C6.48792 1.84856 5.64483 2.12281 5.03537 2.67132C4.44623 3.21984 4.15165 3.98166 4.15165 4.9568C4.15165 5.56626 4.26339 6.06398 4.48686 6.44998C4.71033 6.81565 5.076 7.13054 5.58388 7.39464C6.09177 7.63842 6.82312 7.8822 7.77794 8.12599L9.39301 8.55261C11.1808 8.99955 12.4505 9.64964 13.2021 10.5029C13.9538 11.3561 14.3296 12.575 14.3296 14.1596C14.3296 15.9474 13.7405 17.3187 12.5622 18.2735C11.4042 19.2283 9.72821 19.7057 7.53415 19.7057C5.42136 19.7057 3.80629 19.2486 2.68895 18.3344C1.57161 17.3999 0.901203 15.9677 0.677734 14.0377L3.72503 13.5807C3.86724 15.0637 4.26339 16.2013 4.91348 16.9936C5.56357 17.7656 6.43713 18.1516 7.53415 18.1516C8.71244 18.1516 9.61647 17.8875 10.2462 17.3593C10.876 16.8108 11.1909 16.0286 11.1909 15.0129C11.1909 14.4034 11.0792 13.9159 10.8557 13.5502C10.6322 13.1845 10.2564 12.8798 9.72821 12.636C9.20001 12.3719 8.41787 12.1179 7.38179 11.8742L5.94956 11.5085C4.18213 11.1022 2.92258 10.4724 2.17091 9.61917C1.43956 8.74561 1.07388 7.49621 1.07388 5.87099C1.07388 4.02229 1.6224 2.63069 2.71942 1.69619C3.81645 0.761685 5.44168 0.294434 7.5951 0.294434Z" fill="#DC8E3A"/>
<path d="M30.8346 13.154C30.8346 14.7589 30.4892 16.049 29.7985 17.0241C29.1281 17.9992 28.2748 18.69 27.2387 19.0963C26.2027 19.5026 25.1158 19.7057 23.9781 19.7057C21.8653 19.7057 20.1182 19.208 18.7368 18.2125C17.3757 17.2171 16.6951 15.5309 16.6951 13.154V0.660108H20.5347V13.154C20.5347 14.7793 20.8699 15.9677 21.5403 16.7194C22.2107 17.4507 23.1046 17.8164 24.2219 17.8164C25.4815 17.8164 26.5175 17.4406 27.3302 16.6889C28.1631 15.9372 28.5796 14.7589 28.5796 13.154V0.660108H30.8346V13.154Z" fill="#DC8E3A"/>
<path d="M49.0824 3.34173L44.6029 19.2791V19.34H41.2508L36.7713 3.06747L36.4056 19.34H34.0897L34.6077 0.660108H39.5444L43.5058 15.1957L47.5283 0.660108H52.7087L53.2572 19.34H49.4176L49.0824 3.34173Z" fill="#DC8E3A"/>
<path d="M70.653 13.154C70.653 14.7589 70.3076 16.049 69.6169 17.0241C68.9465 17.9992 68.0932 18.69 67.0572 19.0963C66.0211 19.5026 64.9342 19.7057 63.7966 19.7057C61.6838 19.7057 59.9366 19.208 58.5552 18.2125C57.1941 17.2171 56.5135 15.5309 56.5135 13.154V0.660108H60.3531V13.154C60.3531 14.7793 60.6883 15.9677 61.3587 16.7194C62.0291 17.4507 62.923 17.8164 64.0403 17.8164C65.2999 17.8164 66.336 17.4406 67.1486 16.6889C67.9815 15.9372 68.398 14.7589 68.398 13.154V0.660108H70.653V13.154Z" fill="#DC8E3A"/>
<path d="M89.1446 0.660108V19.34H85.0612L76.5593 4.59112V19.34H74.2738V0.660108H78.3267L86.8591 15.409V0.660108H89.1446Z" fill="#DC8E3A"/>
<path d="M102.024 13.9768H94.9847L93.3391 19.34H91.1146L96.9959 0.660108H101.536L107.387 19.34H103.7L102.024 13.9768ZM101.475 12.1484L98.4891 2.51896L95.5332 12.1484H101.475Z" fill="#DC8E3A"/>
<path d="M123.135 19.34H118.991L116.34 12.7579C116.136 12.2297 115.893 11.8945 115.608 11.7523C115.344 11.5898 114.897 11.5085 114.267 11.5085H113.17V19.34H109.331V0.660108H116.096C118.391 0.660108 120.007 1.21878 120.941 2.33612C121.876 3.43315 122.343 4.77396 122.343 6.35856C122.343 7.43527 122.079 8.4104 121.55 9.28396C121.043 10.1372 120.159 10.7568 118.899 11.1428C119.529 11.4069 119.996 11.8539 120.301 12.4836L123.135 19.34ZM115.578 10.1067C116.553 10.1067 117.284 9.74106 117.772 9.00971C118.259 8.25804 118.503 7.37432 118.503 6.35856C118.503 5.15995 118.259 4.14419 117.772 3.31126C117.284 2.47833 116.553 2.06187 115.578 2.06187H113.17V10.1067H115.578Z" fill="#DC8E3A"/>
</svg>
