<svg width="121" height="120" viewBox="0 0 121 120" fill="none" xmlns="http://www.w3.org/2000/svg">
<g clip-path="url(#clip0_3028_92)">
<rect x="0.840332" width="120" height="120" rx="10" fill="white"/>
<g filter="url(#filter0_f_3028_92)">
<circle cx="60.8882" cy="-18.6" r="56.4" fill="url(#paint0_linear_3028_92)" fill-opacity="0.4"/>
</g>
<path d="M61.8582 23.6691C69.7769 23.6691 75.8776 25.5394 80.1602 29.28C84.4428 32.9394 87.1093 38.6317 88.1597 46.357L75.7968 48.0647C75.3928 42.291 73.9787 37.8185 71.5546 34.6471C69.1305 31.4757 65.8579 29.8899 61.737 29.8899C57.4544 29.8899 54.101 30.9877 51.6769 33.1833C49.3336 35.379 48.162 38.4284 48.162 42.3317C48.162 44.7713 48.6064 46.7636 49.4952 48.3086C50.3841 49.7724 51.8385 51.0328 53.8586 52.0899C55.8787 53.0658 58.7876 54.0416 62.5854 55.0174L69.0093 56.7251C76.12 58.5141 81.1702 61.1163 84.1599 64.5317C87.1497 67.9471 88.6445 72.8262 88.6445 79.1691C88.6445 86.3251 86.3012 91.8141 81.6146 95.6361C77.0088 99.4581 70.3425 101.369 61.6157 101.369C53.2122 101.369 46.7883 99.5394 42.3441 95.8801C37.8999 92.1394 35.2334 86.4064 34.3445 78.6811L46.4651 76.8515C47.0307 82.7877 48.6064 87.3416 51.1921 90.513C53.7778 93.6031 57.2524 95.1482 61.6157 95.1482C66.3024 95.1482 69.8981 94.091 72.403 91.9768C74.9079 89.7811 76.1604 86.6504 76.1604 82.5844C76.1604 80.1449 75.716 78.1932 74.8271 76.7295C73.9383 75.2658 72.4434 74.046 70.3425 73.0702C68.2416 72.013 65.1307 70.9965 61.0097 70.0207L55.3131 68.557C48.2832 66.9306 43.2733 64.4097 40.2836 60.9943C37.3747 57.4976 35.9202 52.4965 35.9202 45.991C35.9202 38.591 38.1019 33.0207 42.4653 29.28C46.8287 25.5394 53.293 23.6691 61.8582 23.6691Z" fill="#DC8E3A"/>
</g>
<defs>
<filter id="filter0_f_3028_92" x="-56.7118" y="-136.2" width="235.2" height="235.2" filterUnits="userSpaceOnUse" color-interpolation-filters="sRGB">
<feFlood flood-opacity="0" result="BackgroundImageFix"/>
<feBlend mode="normal" in="SourceGraphic" in2="BackgroundImageFix" result="shape"/>
<feGaussianBlur stdDeviation="30.6" result="effect1_foregroundBlur_3028_92"/>
</filter>
<linearGradient id="paint0_linear_3028_92" x1="60.8882" y1="-75" x2="60.8882" y2="37.8" gradientUnits="userSpaceOnUse">
<stop stop-color="#F2E940"/>
<stop offset="1" stop-color="#F29C40"/>
</linearGradient>
<clipPath id="clip0_3028_92">
<rect x="0.840332" width="120" height="120" rx="10" fill="white"/>
</clipPath>
</defs>
</svg>
